%TF.GenerationSoftware,KiCad,Pcbnew,9.0.3*%
%TF.CreationDate,2025-08-06T11:21:27-04:00*%
%TF.ProjectId,rv_light,72765f6c-6967-4687-942e-6b696361645f,rev?*%
%TF.SameCoordinates,Original*%
%TF.FileFunction,Legend,Bot*%
%TF.FilePolarity,Positive*%
%FSLAX46Y46*%
G04 Gerber Fmt 4.6, Leading zero omitted, Abs format (unit mm)*
G04 Created by KiCad (PCBNEW 9.0.3) date 2025-08-06 11:21:27*
%MOMM*%
%LPD*%
G01*
G04 APERTURE LIST*
%ADD10C,0.000000*%
G04 APERTURE END LIST*
D10*
%TO.C,FID4*%
G36*
X25746363Y16743143D02*
G01*
X25746363Y15867923D01*
X24871143Y15867923D01*
X23995923Y15867923D01*
X23995923Y16743143D01*
X23995923Y17618363D01*
X24871143Y17618363D01*
X25746363Y17618363D01*
X25746363Y16743143D01*
G37*
G36*
X31817038Y23240935D02*
G01*
X31817038Y22792832D01*
X31379428Y22803325D01*
X30941818Y22813818D01*
X30931325Y23251428D01*
X30920832Y23689038D01*
X31368935Y23689038D01*
X31817038Y23689038D01*
X31817038Y23240935D01*
G37*
G36*
X36137272Y14154727D02*
G01*
X29210000Y14154727D01*
X22282727Y14154727D01*
X22282727Y21082000D01*
X22282727Y27152674D01*
X23139325Y27152674D01*
X23139325Y21082000D01*
X23139325Y15011325D01*
X29210000Y15011325D01*
X35280674Y15011325D01*
X35280674Y21082000D01*
X35280674Y27152674D01*
X29210000Y27152674D01*
X23139325Y27152674D01*
X22282727Y27152674D01*
X22282727Y28009272D01*
X29210000Y28009272D01*
X36137272Y28009272D01*
X36137272Y21082000D01*
X36137272Y14154727D01*
G37*
G36*
X33548856Y17618363D02*
G01*
X34424076Y17618363D01*
X34424076Y16743143D01*
X34424076Y15867923D01*
X33548856Y15867923D01*
X32673636Y15867923D01*
X32673636Y16743143D01*
X32673636Y17618363D01*
X33548856Y17618363D01*
G37*
G36*
X30960440Y20225401D02*
G01*
X30960440Y19368803D01*
X31817038Y19368803D01*
X32673636Y19368803D01*
X32673636Y18493583D01*
X32673636Y17618363D01*
X31798416Y17618363D01*
X30923196Y17618363D01*
X30923196Y18474962D01*
X30923196Y19331560D01*
X29210000Y19331560D01*
X27496803Y19331560D01*
X27496803Y18474962D01*
X27496803Y17618363D01*
X26621583Y17618363D01*
X25746363Y17618363D01*
X25746363Y18493583D01*
X25746363Y19368803D01*
X26602962Y19368803D01*
X27459560Y19368803D01*
X27459560Y20225401D01*
X27459560Y21082000D01*
X29210000Y21082000D01*
X30960440Y21082000D01*
X30960440Y20225401D01*
G37*
G36*
X31817038Y25868959D02*
G01*
X31817038Y25439478D01*
X32673636Y25439478D01*
X33530234Y25439478D01*
X33530234Y25867777D01*
X33530234Y26296076D01*
X33977155Y26296076D01*
X34424076Y26296076D01*
X34424076Y25849155D01*
X34424076Y25402234D01*
X33995777Y25402234D01*
X33567478Y25402234D01*
X33567478Y24545636D01*
X33567478Y23689038D01*
X33995777Y23689038D01*
X34424076Y23689038D01*
X34424076Y23266946D01*
X34422364Y23114916D01*
X34416858Y22968504D01*
X34408459Y22864473D01*
X34398096Y22818874D01*
X34364258Y22810622D01*
X34268789Y22803971D01*
X34128776Y22801356D01*
X33960486Y22803356D01*
X33548856Y22813818D01*
X33538363Y23251428D01*
X33527870Y23689038D01*
X32672454Y23689038D01*
X31817038Y23689038D01*
X31817038Y24544454D01*
X31817038Y25399870D01*
X31379428Y25410363D01*
X30941818Y25420856D01*
X30941818Y25849155D01*
X30941818Y26277454D01*
X31379428Y26287947D01*
X31817038Y26298440D01*
X31817038Y25868959D01*
G37*
G36*
X27049882Y23689038D02*
G01*
X27496803Y23689038D01*
X27496803Y23266946D01*
X27495164Y23114845D01*
X27489901Y22968746D01*
X27481875Y22865142D01*
X27471974Y22820025D01*
X27435251Y22811174D01*
X27337505Y22802890D01*
X27195441Y22797268D01*
X27025053Y22795196D01*
X26602962Y22795196D01*
X26602962Y23242117D01*
X26602962Y23689038D01*
X27049882Y23689038D01*
G37*
G36*
X27040571Y26287947D02*
G01*
X27478181Y26277454D01*
X27478181Y25849155D01*
X27478181Y25420856D01*
X27040571Y25410363D01*
X26602962Y25399870D01*
X26602962Y24544454D01*
X26602962Y23689038D01*
X25747545Y23689038D01*
X24892129Y23689038D01*
X24881636Y23251428D01*
X24871143Y22813818D01*
X24442844Y22813818D01*
X24014545Y22813818D01*
X24004052Y23251428D01*
X23993560Y23689038D01*
X24423041Y23689038D01*
X24852522Y23689038D01*
X24852522Y24545636D01*
X24852522Y25402234D01*
X24424223Y25402234D01*
X23995923Y25402234D01*
X23995923Y25849155D01*
X23995923Y26296076D01*
X24442844Y26296076D01*
X24889765Y26296076D01*
X24889765Y25867777D01*
X24889765Y25439478D01*
X25746363Y25439478D01*
X26602962Y25439478D01*
X26602962Y25868959D01*
X26602962Y26298440D01*
X27040571Y26287947D01*
G37*
%TO.C,FID5*%
G36*
X40986363Y39344688D02*
G01*
X40986363Y38469468D01*
X40111143Y38469468D01*
X39235923Y38469468D01*
X39235923Y39344688D01*
X39235923Y40219908D01*
X40111143Y40219908D01*
X40986363Y40219908D01*
X40986363Y39344688D01*
G37*
G36*
X47057038Y45842480D02*
G01*
X47057038Y45394377D01*
X46619428Y45404870D01*
X46181818Y45415363D01*
X46171325Y45852973D01*
X46160832Y46290583D01*
X46608935Y46290583D01*
X47057038Y46290583D01*
X47057038Y45842480D01*
G37*
G36*
X51377272Y36756272D02*
G01*
X44450000Y36756272D01*
X37522727Y36756272D01*
X37522727Y43683545D01*
X37522727Y49754219D01*
X38379325Y49754219D01*
X38379325Y43683545D01*
X38379325Y37612870D01*
X44450000Y37612870D01*
X50520674Y37612870D01*
X50520674Y43683545D01*
X50520674Y49754219D01*
X44450000Y49754219D01*
X38379325Y49754219D01*
X37522727Y49754219D01*
X37522727Y50610817D01*
X44450000Y50610817D01*
X51377272Y50610817D01*
X51377272Y43683545D01*
X51377272Y36756272D01*
G37*
G36*
X48788856Y40219908D02*
G01*
X49664076Y40219908D01*
X49664076Y39344688D01*
X49664076Y38469468D01*
X48788856Y38469468D01*
X47913636Y38469468D01*
X47913636Y39344688D01*
X47913636Y40219908D01*
X48788856Y40219908D01*
G37*
G36*
X46200440Y42826946D02*
G01*
X46200440Y41970348D01*
X47057038Y41970348D01*
X47913636Y41970348D01*
X47913636Y41095128D01*
X47913636Y40219908D01*
X47038416Y40219908D01*
X46163196Y40219908D01*
X46163196Y41076507D01*
X46163196Y41933105D01*
X44450000Y41933105D01*
X42736803Y41933105D01*
X42736803Y41076507D01*
X42736803Y40219908D01*
X41861583Y40219908D01*
X40986363Y40219908D01*
X40986363Y41095128D01*
X40986363Y41970348D01*
X41842962Y41970348D01*
X42699560Y41970348D01*
X42699560Y42826946D01*
X42699560Y43683545D01*
X44450000Y43683545D01*
X46200440Y43683545D01*
X46200440Y42826946D01*
G37*
G36*
X47057038Y48470504D02*
G01*
X47057038Y48041023D01*
X47913636Y48041023D01*
X48770234Y48041023D01*
X48770234Y48469322D01*
X48770234Y48897621D01*
X49217155Y48897621D01*
X49664076Y48897621D01*
X49664076Y48450700D01*
X49664076Y48003779D01*
X49235777Y48003779D01*
X48807478Y48003779D01*
X48807478Y47147181D01*
X48807478Y46290583D01*
X49235777Y46290583D01*
X49664076Y46290583D01*
X49664076Y45868491D01*
X49662364Y45716461D01*
X49656858Y45570049D01*
X49648459Y45466018D01*
X49638096Y45420419D01*
X49604258Y45412167D01*
X49508789Y45405516D01*
X49368776Y45402901D01*
X49200486Y45404901D01*
X48788856Y45415363D01*
X48778363Y45852973D01*
X48767870Y46290583D01*
X47912454Y46290583D01*
X47057038Y46290583D01*
X47057038Y47145999D01*
X47057038Y48001415D01*
X46619428Y48011908D01*
X46181818Y48022401D01*
X46181818Y48450700D01*
X46181818Y48878999D01*
X46619428Y48889492D01*
X47057038Y48899985D01*
X47057038Y48470504D01*
G37*
G36*
X42289882Y46290583D02*
G01*
X42736803Y46290583D01*
X42736803Y45868491D01*
X42735164Y45716390D01*
X42729901Y45570291D01*
X42721875Y45466687D01*
X42711974Y45421570D01*
X42675251Y45412719D01*
X42577505Y45404435D01*
X42435441Y45398813D01*
X42265053Y45396741D01*
X41842962Y45396741D01*
X41842962Y45843662D01*
X41842962Y46290583D01*
X42289882Y46290583D01*
G37*
G36*
X42280571Y48889492D02*
G01*
X42718181Y48878999D01*
X42718181Y48450700D01*
X42718181Y48022401D01*
X42280571Y48011908D01*
X41842962Y48001415D01*
X41842962Y47145999D01*
X41842962Y46290583D01*
X40987545Y46290583D01*
X40132129Y46290583D01*
X40121636Y45852973D01*
X40111143Y45415363D01*
X39682844Y45415363D01*
X39254545Y45415363D01*
X39244052Y45852973D01*
X39233560Y46290583D01*
X39663041Y46290583D01*
X40092522Y46290583D01*
X40092522Y47147181D01*
X40092522Y48003779D01*
X39664223Y48003779D01*
X39235923Y48003779D01*
X39235923Y48450700D01*
X39235923Y48897621D01*
X39682844Y48897621D01*
X40129765Y48897621D01*
X40129765Y48469322D01*
X40129765Y48041023D01*
X40986363Y48041023D01*
X41842962Y48041023D01*
X41842962Y48470504D01*
X41842962Y48899985D01*
X42280571Y48889492D01*
G37*
%TO.C,FID3*%
G36*
X25746363Y31597688D02*
G01*
X25746363Y30722468D01*
X24871143Y30722468D01*
X23995923Y30722468D01*
X23995923Y31597688D01*
X23995923Y32472908D01*
X24871143Y32472908D01*
X25746363Y32472908D01*
X25746363Y31597688D01*
G37*
G36*
X31817038Y38095480D02*
G01*
X31817038Y37647377D01*
X31379428Y37657870D01*
X30941818Y37668363D01*
X30931325Y38105973D01*
X30920832Y38543583D01*
X31368935Y38543583D01*
X31817038Y38543583D01*
X31817038Y38095480D01*
G37*
G36*
X36137272Y29009272D02*
G01*
X29210000Y29009272D01*
X22282727Y29009272D01*
X22282727Y35936545D01*
X22282727Y42007219D01*
X23139325Y42007219D01*
X23139325Y35936545D01*
X23139325Y29865870D01*
X29210000Y29865870D01*
X35280674Y29865870D01*
X35280674Y35936545D01*
X35280674Y42007219D01*
X29210000Y42007219D01*
X23139325Y42007219D01*
X22282727Y42007219D01*
X22282727Y42863817D01*
X29210000Y42863817D01*
X36137272Y42863817D01*
X36137272Y35936545D01*
X36137272Y29009272D01*
G37*
G36*
X33548856Y32472908D02*
G01*
X34424076Y32472908D01*
X34424076Y31597688D01*
X34424076Y30722468D01*
X33548856Y30722468D01*
X32673636Y30722468D01*
X32673636Y31597688D01*
X32673636Y32472908D01*
X33548856Y32472908D01*
G37*
G36*
X30960440Y35079946D02*
G01*
X30960440Y34223348D01*
X31817038Y34223348D01*
X32673636Y34223348D01*
X32673636Y33348128D01*
X32673636Y32472908D01*
X31798416Y32472908D01*
X30923196Y32472908D01*
X30923196Y33329507D01*
X30923196Y34186105D01*
X29210000Y34186105D01*
X27496803Y34186105D01*
X27496803Y33329507D01*
X27496803Y32472908D01*
X26621583Y32472908D01*
X25746363Y32472908D01*
X25746363Y33348128D01*
X25746363Y34223348D01*
X26602962Y34223348D01*
X27459560Y34223348D01*
X27459560Y35079946D01*
X27459560Y35936545D01*
X29210000Y35936545D01*
X30960440Y35936545D01*
X30960440Y35079946D01*
G37*
G36*
X31817038Y40723504D02*
G01*
X31817038Y40294023D01*
X32673636Y40294023D01*
X33530234Y40294023D01*
X33530234Y40722322D01*
X33530234Y41150621D01*
X33977155Y41150621D01*
X34424076Y41150621D01*
X34424076Y40703700D01*
X34424076Y40256779D01*
X33995777Y40256779D01*
X33567478Y40256779D01*
X33567478Y39400181D01*
X33567478Y38543583D01*
X33995777Y38543583D01*
X34424076Y38543583D01*
X34424076Y38121491D01*
X34422364Y37969461D01*
X34416858Y37823049D01*
X34408459Y37719018D01*
X34398096Y37673419D01*
X34364258Y37665167D01*
X34268789Y37658516D01*
X34128776Y37655901D01*
X33960486Y37657901D01*
X33548856Y37668363D01*
X33538363Y38105973D01*
X33527870Y38543583D01*
X32672454Y38543583D01*
X31817038Y38543583D01*
X31817038Y39398999D01*
X31817038Y40254415D01*
X31379428Y40264908D01*
X30941818Y40275401D01*
X30941818Y40703700D01*
X30941818Y41131999D01*
X31379428Y41142492D01*
X31817038Y41152985D01*
X31817038Y40723504D01*
G37*
G36*
X27049882Y38543583D02*
G01*
X27496803Y38543583D01*
X27496803Y38121491D01*
X27495164Y37969390D01*
X27489901Y37823291D01*
X27481875Y37719687D01*
X27471974Y37674570D01*
X27435251Y37665719D01*
X27337505Y37657435D01*
X27195441Y37651813D01*
X27025053Y37649741D01*
X26602962Y37649741D01*
X26602962Y38096662D01*
X26602962Y38543583D01*
X27049882Y38543583D01*
G37*
G36*
X27040571Y41142492D02*
G01*
X27478181Y41131999D01*
X27478181Y40703700D01*
X27478181Y40275401D01*
X27040571Y40264908D01*
X26602962Y40254415D01*
X26602962Y39398999D01*
X26602962Y38543583D01*
X25747545Y38543583D01*
X24892129Y38543583D01*
X24881636Y38105973D01*
X24871143Y37668363D01*
X24442844Y37668363D01*
X24014545Y37668363D01*
X24004052Y38105973D01*
X23993560Y38543583D01*
X24423041Y38543583D01*
X24852522Y38543583D01*
X24852522Y39400181D01*
X24852522Y40256779D01*
X24424223Y40256779D01*
X23995923Y40256779D01*
X23995923Y40703700D01*
X23995923Y41150621D01*
X24442844Y41150621D01*
X24889765Y41150621D01*
X24889765Y40722322D01*
X24889765Y40294023D01*
X25746363Y40294023D01*
X26602962Y40294023D01*
X26602962Y40723504D01*
X26602962Y41152985D01*
X27040571Y41142492D01*
G37*
%TO.C,FID6*%
G36*
X40986363Y24612688D02*
G01*
X40986363Y23737468D01*
X40111143Y23737468D01*
X39235923Y23737468D01*
X39235923Y24612688D01*
X39235923Y25487908D01*
X40111143Y25487908D01*
X40986363Y25487908D01*
X40986363Y24612688D01*
G37*
G36*
X47057038Y31110480D02*
G01*
X47057038Y30662377D01*
X46619428Y30672870D01*
X46181818Y30683363D01*
X46171325Y31120973D01*
X46160832Y31558583D01*
X46608935Y31558583D01*
X47057038Y31558583D01*
X47057038Y31110480D01*
G37*
G36*
X51377272Y22024272D02*
G01*
X44450000Y22024272D01*
X37522727Y22024272D01*
X37522727Y28951545D01*
X37522727Y35022219D01*
X38379325Y35022219D01*
X38379325Y28951545D01*
X38379325Y22880870D01*
X44450000Y22880870D01*
X50520674Y22880870D01*
X50520674Y28951545D01*
X50520674Y35022219D01*
X44450000Y35022219D01*
X38379325Y35022219D01*
X37522727Y35022219D01*
X37522727Y35878817D01*
X44450000Y35878817D01*
X51377272Y35878817D01*
X51377272Y28951545D01*
X51377272Y22024272D01*
G37*
G36*
X48788856Y25487908D02*
G01*
X49664076Y25487908D01*
X49664076Y24612688D01*
X49664076Y23737468D01*
X48788856Y23737468D01*
X47913636Y23737468D01*
X47913636Y24612688D01*
X47913636Y25487908D01*
X48788856Y25487908D01*
G37*
G36*
X46200440Y28094946D02*
G01*
X46200440Y27238348D01*
X47057038Y27238348D01*
X47913636Y27238348D01*
X47913636Y26363128D01*
X47913636Y25487908D01*
X47038416Y25487908D01*
X46163196Y25487908D01*
X46163196Y26344507D01*
X46163196Y27201105D01*
X44450000Y27201105D01*
X42736803Y27201105D01*
X42736803Y26344507D01*
X42736803Y25487908D01*
X41861583Y25487908D01*
X40986363Y25487908D01*
X40986363Y26363128D01*
X40986363Y27238348D01*
X41842962Y27238348D01*
X42699560Y27238348D01*
X42699560Y28094946D01*
X42699560Y28951545D01*
X44450000Y28951545D01*
X46200440Y28951545D01*
X46200440Y28094946D01*
G37*
G36*
X47057038Y33738504D02*
G01*
X47057038Y33309023D01*
X47913636Y33309023D01*
X48770234Y33309023D01*
X48770234Y33737322D01*
X48770234Y34165621D01*
X49217155Y34165621D01*
X49664076Y34165621D01*
X49664076Y33718700D01*
X49664076Y33271779D01*
X49235777Y33271779D01*
X48807478Y33271779D01*
X48807478Y32415181D01*
X48807478Y31558583D01*
X49235777Y31558583D01*
X49664076Y31558583D01*
X49664076Y31136491D01*
X49662364Y30984461D01*
X49656858Y30838049D01*
X49648459Y30734018D01*
X49638096Y30688419D01*
X49604258Y30680167D01*
X49508789Y30673516D01*
X49368776Y30670901D01*
X49200486Y30672901D01*
X48788856Y30683363D01*
X48778363Y31120973D01*
X48767870Y31558583D01*
X47912454Y31558583D01*
X47057038Y31558583D01*
X47057038Y32413999D01*
X47057038Y33269415D01*
X46619428Y33279908D01*
X46181818Y33290401D01*
X46181818Y33718700D01*
X46181818Y34146999D01*
X46619428Y34157492D01*
X47057038Y34167985D01*
X47057038Y33738504D01*
G37*
G36*
X42289882Y31558583D02*
G01*
X42736803Y31558583D01*
X42736803Y31136491D01*
X42735164Y30984390D01*
X42729901Y30838291D01*
X42721875Y30734687D01*
X42711974Y30689570D01*
X42675251Y30680719D01*
X42577505Y30672435D01*
X42435441Y30666813D01*
X42265053Y30664741D01*
X41842962Y30664741D01*
X41842962Y31111662D01*
X41842962Y31558583D01*
X42289882Y31558583D01*
G37*
G36*
X42280571Y34157492D02*
G01*
X42718181Y34146999D01*
X42718181Y33718700D01*
X42718181Y33290401D01*
X42280571Y33279908D01*
X41842962Y33269415D01*
X41842962Y32413999D01*
X41842962Y31558583D01*
X40987545Y31558583D01*
X40132129Y31558583D01*
X40121636Y31120973D01*
X40111143Y30683363D01*
X39682844Y30683363D01*
X39254545Y30683363D01*
X39244052Y31120973D01*
X39233560Y31558583D01*
X39663041Y31558583D01*
X40092522Y31558583D01*
X40092522Y32415181D01*
X40092522Y33271779D01*
X39664223Y33271779D01*
X39235923Y33271779D01*
X39235923Y33718700D01*
X39235923Y34165621D01*
X39682844Y34165621D01*
X40129765Y34165621D01*
X40129765Y33737322D01*
X40129765Y33309023D01*
X40986363Y33309023D01*
X41842962Y33309023D01*
X41842962Y33738504D01*
X41842962Y34167985D01*
X42280571Y34157492D01*
G37*
%TO.C,FID2*%
G36*
X40986363Y9758143D02*
G01*
X40986363Y8882923D01*
X40111143Y8882923D01*
X39235923Y8882923D01*
X39235923Y9758143D01*
X39235923Y10633363D01*
X40111143Y10633363D01*
X40986363Y10633363D01*
X40986363Y9758143D01*
G37*
G36*
X47057038Y16255935D02*
G01*
X47057038Y15807832D01*
X46619428Y15818325D01*
X46181818Y15828818D01*
X46171325Y16266428D01*
X46160832Y16704038D01*
X46608935Y16704038D01*
X47057038Y16704038D01*
X47057038Y16255935D01*
G37*
G36*
X51377272Y7169727D02*
G01*
X44450000Y7169727D01*
X37522727Y7169727D01*
X37522727Y14097000D01*
X37522727Y20167674D01*
X38379325Y20167674D01*
X38379325Y14097000D01*
X38379325Y8026325D01*
X44450000Y8026325D01*
X50520674Y8026325D01*
X50520674Y14097000D01*
X50520674Y20167674D01*
X44450000Y20167674D01*
X38379325Y20167674D01*
X37522727Y20167674D01*
X37522727Y21024272D01*
X44450000Y21024272D01*
X51377272Y21024272D01*
X51377272Y14097000D01*
X51377272Y7169727D01*
G37*
G36*
X48788856Y10633363D02*
G01*
X49664076Y10633363D01*
X49664076Y9758143D01*
X49664076Y8882923D01*
X48788856Y8882923D01*
X47913636Y8882923D01*
X47913636Y9758143D01*
X47913636Y10633363D01*
X48788856Y10633363D01*
G37*
G36*
X46200440Y13240401D02*
G01*
X46200440Y12383803D01*
X47057038Y12383803D01*
X47913636Y12383803D01*
X47913636Y11508583D01*
X47913636Y10633363D01*
X47038416Y10633363D01*
X46163196Y10633363D01*
X46163196Y11489962D01*
X46163196Y12346560D01*
X44450000Y12346560D01*
X42736803Y12346560D01*
X42736803Y11489962D01*
X42736803Y10633363D01*
X41861583Y10633363D01*
X40986363Y10633363D01*
X40986363Y11508583D01*
X40986363Y12383803D01*
X41842962Y12383803D01*
X42699560Y12383803D01*
X42699560Y13240401D01*
X42699560Y14097000D01*
X44450000Y14097000D01*
X46200440Y14097000D01*
X46200440Y13240401D01*
G37*
G36*
X47057038Y18883959D02*
G01*
X47057038Y18454478D01*
X47913636Y18454478D01*
X48770234Y18454478D01*
X48770234Y18882777D01*
X48770234Y19311076D01*
X49217155Y19311076D01*
X49664076Y19311076D01*
X49664076Y18864155D01*
X49664076Y18417234D01*
X49235777Y18417234D01*
X48807478Y18417234D01*
X48807478Y17560636D01*
X48807478Y16704038D01*
X49235777Y16704038D01*
X49664076Y16704038D01*
X49664076Y16281946D01*
X49662364Y16129916D01*
X49656858Y15983504D01*
X49648459Y15879473D01*
X49638096Y15833874D01*
X49604258Y15825622D01*
X49508789Y15818971D01*
X49368776Y15816356D01*
X49200486Y15818356D01*
X48788856Y15828818D01*
X48778363Y16266428D01*
X48767870Y16704038D01*
X47912454Y16704038D01*
X47057038Y16704038D01*
X47057038Y17559454D01*
X47057038Y18414870D01*
X46619428Y18425363D01*
X46181818Y18435856D01*
X46181818Y18864155D01*
X46181818Y19292454D01*
X46619428Y19302947D01*
X47057038Y19313440D01*
X47057038Y18883959D01*
G37*
G36*
X42289882Y16704038D02*
G01*
X42736803Y16704038D01*
X42736803Y16281946D01*
X42735164Y16129845D01*
X42729901Y15983746D01*
X42721875Y15880142D01*
X42711974Y15835025D01*
X42675251Y15826174D01*
X42577505Y15817890D01*
X42435441Y15812268D01*
X42265053Y15810196D01*
X41842962Y15810196D01*
X41842962Y16257117D01*
X41842962Y16704038D01*
X42289882Y16704038D01*
G37*
G36*
X42280571Y19302947D02*
G01*
X42718181Y19292454D01*
X42718181Y18864155D01*
X42718181Y18435856D01*
X42280571Y18425363D01*
X41842962Y18414870D01*
X41842962Y17559454D01*
X41842962Y16704038D01*
X40987545Y16704038D01*
X40132129Y16704038D01*
X40121636Y16266428D01*
X40111143Y15828818D01*
X39682844Y15828818D01*
X39254545Y15828818D01*
X39244052Y16266428D01*
X39233560Y16704038D01*
X39663041Y16704038D01*
X40092522Y16704038D01*
X40092522Y17560636D01*
X40092522Y18417234D01*
X39664223Y18417234D01*
X39235923Y18417234D01*
X39235923Y18864155D01*
X39235923Y19311076D01*
X39682844Y19311076D01*
X40129765Y19311076D01*
X40129765Y18882777D01*
X40129765Y18454478D01*
X40986363Y18454478D01*
X41842962Y18454478D01*
X41842962Y18883959D01*
X41842962Y19313440D01*
X42280571Y19302947D01*
G37*
%TD*%
M02*
