M48
; DRILL file {KiCad 9.0.3} date 2025-08-06T11:21:29-0400
; FORMAT={-:-/ absolute / metric / decimal}
; #@! TF.CreationDate,2025-08-06T11:21:29-04:00
; #@! TF.GenerationSoftware,Kicad,Pcbnew,9.0.3
; #@! TF.FileFunction,Plated,1,2,PTH
FMAT,2
METRIC
; #@! TA.AperFunction,Plated,PTH,ViaDrill
T1C0.203
; #@! TA.AperFunction,Plated,PTH,ComponentDrill
T2C0.533
; #@! TA.AperFunction,Plated,PTH,ComponentDrill
T3C1.000
; #@! TA.AperFunction,Plated,PTH,ComponentDrill
T4C1.295
; #@! TA.AperFunction,Plated,PTH,ComponentDrill
T5C2.946
%
G90
G05
T1
X26.924Y35.052
X28.702Y48.514
X29.845Y15.621
X30.226Y44.45
X30.48Y19.05
X32.385Y24.13
X34.838Y25.78
X34.838Y22.479
X36.449Y18.034
X37.56Y18.034
X37.56Y14.675
X38.735Y14.675
X41.783Y17.018
X45.085Y42.799
X45.212Y18.034
X46.355Y13.97
X46.99Y18.542
X47.244Y34.036
X48.26Y52.324
X48.768Y44.069
X49.154Y13.97
X49.784Y35.56
X50.292Y40.64
X50.866Y42.098
X51.689Y46.228
X53.086Y14.986
X53.975Y34.798
T2
X12.134Y35.658
X13.517Y33.528
X14.901Y31.398
X16.284Y29.268
X17.667Y27.137
X19.051Y25.007
X20.434Y22.877
X36.678Y51.664
X38.049Y49.53
X39.37Y47.396
X40.816Y45.309
X42.337Y42.966
X43.711Y40.85
X45.085Y38.735
T3
X55.4Y31.035
X55.4Y26.095
X55.4Y20.955
T4
X17.658Y17.348
X19.812Y16.002
T5
X-51.439Y-3.801
X-51.42Y59.727
X53.971Y59.699
X53.972Y-3.81
M30
