%TF.GenerationSoftware,KiCad,Pcbnew,9.0.3*%
%TF.CreationDate,2025-08-06T11:21:27-04:00*%
%TF.ProjectId,rv_light,72765f6c-6967-4687-942e-6b696361645f,rev?*%
%TF.SameCoordinates,Original*%
%TF.FileFunction,Soldermask,Top*%
%TF.FilePolarity,Negative*%
%FSLAX46Y46*%
G04 Gerber Fmt 4.6, Leading zero omitted, Abs format (unit mm)*
G04 Created by KiCad (PCBNEW 9.0.3) date 2025-08-06 11:21:27*
%MOMM*%
%LPD*%
G01*
G04 APERTURE LIST*
G04 Aperture macros list*
%AMRoundRect*
0 Rectangle with rounded corners*
0 $1 Rounding radius*
0 $2 $3 $4 $5 $6 $7 $8 $9 X,Y pos of 4 corners*
0 Add a 4 corners polygon primitive as box body*
4,1,4,$2,$3,$4,$5,$6,$7,$8,$9,$2,$3,0*
0 Add four circle primitives for the rounded corners*
1,1,$1+$1,$2,$3*
1,1,$1+$1,$4,$5*
1,1,$1+$1,$6,$7*
1,1,$1+$1,$8,$9*
0 Add four rect primitives between the rounded corners*
20,1,$1+$1,$2,$3,$4,$5,0*
20,1,$1+$1,$4,$5,$6,$7,0*
20,1,$1+$1,$6,$7,$8,$9,0*
20,1,$1+$1,$8,$9,$2,$3,0*%
G04 Aperture macros list end*
%ADD10RoundRect,0.150000X-0.512500X-0.150000X0.512500X-0.150000X0.512500X0.150000X-0.512500X0.150000X0*%
%ADD11RoundRect,0.150000X-0.587500X-0.150000X0.587500X-0.150000X0.587500X0.150000X-0.587500X0.150000X0*%
%ADD12R,1.700000X1.700000*%
%ADD13C,0.939800*%
%ADD14RoundRect,0.237500X0.300000X0.237500X-0.300000X0.237500X-0.300000X-0.237500X0.300000X-0.237500X0*%
%ADD15C,5.715000*%
%ADD16RoundRect,0.250000X0.475000X-0.337500X0.475000X0.337500X-0.475000X0.337500X-0.475000X-0.337500X0*%
%ADD17C,1.803400*%
%ADD18RoundRect,0.237500X0.237500X-0.250000X0.237500X0.250000X-0.237500X0.250000X-0.237500X-0.250000X0*%
%ADD19RoundRect,0.250000X0.337500X0.475000X-0.337500X0.475000X-0.337500X-0.475000X0.337500X-0.475000X0*%
%ADD20RoundRect,0.237500X-0.300000X-0.237500X0.300000X-0.237500X0.300000X0.237500X-0.300000X0.237500X0*%
%ADD21RoundRect,0.237500X0.250000X0.237500X-0.250000X0.237500X-0.250000X-0.237500X0.250000X-0.237500X0*%
%ADD22R,1.663700X0.533400*%
%ADD23R,2.133600X2.286000*%
%ADD24RoundRect,0.250000X-0.475000X0.337500X-0.475000X-0.337500X0.475000X-0.337500X0.475000X0.337500X0*%
%ADD25RoundRect,0.237500X-0.250000X-0.237500X0.250000X-0.237500X0.250000X0.237500X-0.250000X0.237500X0*%
%ADD26R,2.850000X6.600000*%
%ADD27RoundRect,1.016000X-1.065106X-0.691700X1.065117X0.691683X1.065106X0.691700X-1.065117X-0.691683X0*%
%ADD28RoundRect,0.250000X1.500000X0.650000X-1.500000X0.650000X-1.500000X-0.650000X1.500000X-0.650000X0*%
%ADD29RoundRect,0.250000X-1.748999X0.031636X0.795145X-1.558122X1.748999X-0.031636X-0.795145X1.558122X0*%
%ADD30RoundRect,0.162500X-0.447500X-0.162500X0.447500X-0.162500X0.447500X0.162500X-0.447500X0.162500X0*%
%ADD31RoundRect,0.237500X-0.237500X0.300000X-0.237500X-0.300000X0.237500X-0.300000X0.237500X0.300000X0*%
G04 APERTURE END LIST*
D10*
%TO.C,U3*%
X52329500Y43114000D03*
X52329500Y42164000D03*
X52329500Y41214000D03*
X54604500Y41214000D03*
X54604500Y42164000D03*
X54604500Y43114000D03*
%TD*%
D11*
%TO.C,Q5*%
X48338500Y55052000D03*
X48338500Y53152000D03*
X50213500Y54102000D03*
%TD*%
D12*
%TO.C,J5*%
X55400000Y31035000D03*
%TD*%
%TO.C,J4*%
X55400000Y26095000D03*
%TD*%
%TO.C,J3*%
X55400000Y20955000D03*
%TD*%
D13*
%TO.C,TP9*%
X45085000Y38735000D03*
%TD*%
D14*
%TO.C,C4*%
X54329500Y46228000D03*
X52604500Y46228000D03*
%TD*%
D15*
%TO.C,H3*%
X53972221Y-3809637D03*
%TD*%
D16*
%TO.C,C11*%
X31623000Y16996500D03*
X31623000Y19071500D03*
%TD*%
D15*
%TO.C,H2*%
X53971113Y59698784D03*
%TD*%
D17*
%TO.C,J2*%
X17657958Y17347995D03*
X19812000Y16002000D03*
%TD*%
D13*
%TO.C,TP12*%
X39370000Y47396400D03*
%TD*%
D18*
%TO.C,R8*%
X46228000Y53189500D03*
X46228000Y55014500D03*
%TD*%
D14*
%TO.C,C6*%
X31596500Y14478000D03*
X29871500Y14478000D03*
%TD*%
D19*
%TO.C,C5*%
X50210000Y17526000D03*
X48135000Y17526000D03*
%TD*%
D20*
%TO.C,C7*%
X43460500Y13970000D03*
X45185500Y13970000D03*
%TD*%
D15*
%TO.C,H1*%
X1266105Y27948781D03*
%TD*%
D21*
%TO.C,R6*%
X54379500Y38989000D03*
X52554500Y38989000D03*
%TD*%
%TO.C,R2*%
X50085000Y15494000D03*
X48260000Y15494000D03*
%TD*%
D22*
%TO.C,U1*%
X34385250Y18288000D03*
X34385250Y17018000D03*
X34385250Y15748000D03*
X34385250Y14478000D03*
X40036750Y14478000D03*
X40036750Y15748000D03*
X40036750Y17018000D03*
X40036750Y18288000D03*
D23*
X37211000Y16383000D03*
%TD*%
D13*
%TO.C,TP1*%
X12133810Y35658282D03*
%TD*%
D15*
%TO.C,H4*%
X-51438898Y-3801227D03*
%TD*%
D24*
%TO.C,C10*%
X55372000Y36873000D03*
X55372000Y34798000D03*
%TD*%
D21*
%TO.C,R3*%
X50188500Y46228000D03*
X48363500Y46228000D03*
%TD*%
D13*
%TO.C,TP3*%
X17667336Y27137396D03*
%TD*%
D25*
%TO.C,R1*%
X43410500Y17018000D03*
X45235500Y17018000D03*
%TD*%
D15*
%TO.C,H5*%
X-51419685Y59727331D03*
%TD*%
D16*
%TO.C,C1*%
X29337000Y16996500D03*
X29337000Y19071500D03*
%TD*%
D13*
%TO.C,TP8*%
X43711202Y40850464D03*
%TD*%
%TO.C,TP4*%
X19050720Y25007164D03*
%TD*%
D26*
%TO.C,L1*%
X44165000Y23114000D03*
X49815000Y23114000D03*
%TD*%
D18*
%TO.C,R4*%
X45593000Y48871500D03*
X45593000Y50696500D03*
%TD*%
D27*
%TO.C,U2*%
X16441438Y38441687D03*
X17819483Y36319682D03*
X19202867Y34189459D03*
X20586250Y32059236D03*
X21969633Y29929013D03*
X23353016Y27798789D03*
X24736399Y25668566D03*
X39882286Y35504420D03*
X38498903Y37634644D03*
X37115520Y39764867D03*
X35732137Y41895090D03*
X34348754Y44025313D03*
X32965371Y46155537D03*
X31587325Y48277541D03*
%TD*%
D25*
%TO.C,R5*%
X48260000Y13970000D03*
X50085000Y13970000D03*
%TD*%
D28*
%TO.C,D2*%
X39838000Y24130000D03*
X34838000Y24130000D03*
%TD*%
D13*
%TO.C,TP7*%
X42337405Y42965925D03*
%TD*%
D14*
%TO.C,C2*%
X38200500Y21082000D03*
X36475500Y21082000D03*
%TD*%
D13*
%TO.C,TP2*%
X16283958Y29267615D03*
%TD*%
D29*
%TO.C,D1*%
X26793270Y11336782D03*
X31372730Y8475218D03*
%TD*%
D13*
%TO.C,TP6*%
X40815685Y45309172D03*
%TD*%
%TO.C,TP5*%
X20434109Y22876942D03*
%TD*%
%TO.C,TP14*%
X38049200Y49530000D03*
%TD*%
%TO.C,TP11*%
X13517191Y33528060D03*
%TD*%
D24*
%TO.C,C9*%
X54356000Y17018000D03*
X54356000Y14943000D03*
%TD*%
D30*
%TO.C,Q3*%
X47966000Y50734000D03*
X47966000Y48834000D03*
X50586000Y49784000D03*
%TD*%
D13*
%TO.C,TP10*%
X14900577Y31397847D03*
%TD*%
D31*
%TO.C,C3*%
X48768000Y43065000D03*
X48768000Y41340000D03*
%TD*%
D13*
%TO.C,TP13*%
X36677600Y51663600D03*
%TD*%
D20*
%TO.C,C8*%
X43460500Y15494000D03*
X45185500Y15494000D03*
%TD*%
M02*
