%TF.GenerationSoftware,KiCad,Pcbnew,9.0.3*%
%TF.CreationDate,2025-08-06T11:21:27-04:00*%
%TF.ProjectId,rv_light,72765f6c-6967-4687-942e-6b696361645f,rev?*%
%TF.SameCoordinates,Original*%
%TF.FileFunction,Copper,L2,Bot*%
%TF.FilePolarity,Positive*%
%FSLAX46Y46*%
G04 Gerber Fmt 4.6, Leading zero omitted, Abs format (unit mm)*
G04 Created by KiCad (PCBNEW 9.0.3) date 2025-08-06 11:21:27*
%MOMM*%
%LPD*%
G01*
G04 APERTURE LIST*
%TA.AperFunction,ComponentPad*%
%ADD10R,1.700000X1.700000*%
%TD*%
%TA.AperFunction,ComponentPad*%
%ADD11C,0.939800*%
%TD*%
%TA.AperFunction,ComponentPad*%
%ADD12C,5.715000*%
%TD*%
%TA.AperFunction,ComponentPad*%
%ADD13C,1.803400*%
%TD*%
%TA.AperFunction,WasherPad*%
%ADD14C,5.715000*%
%TD*%
%TA.AperFunction,ViaPad*%
%ADD15C,0.508000*%
%TD*%
%TA.AperFunction,Conductor*%
%ADD16C,0.508000*%
%TD*%
%TA.AperFunction,Conductor*%
%ADD17C,0.381000*%
%TD*%
G04 APERTURE END LIST*
D10*
%TO.P,J5,1,Pin_1*%
%TO.N,GND*%
X55400000Y31035000D03*
%TD*%
%TO.P,J4,1,Pin_1*%
%TO.N,Net-(J4-Pin_1)*%
X55400000Y26095000D03*
%TD*%
%TO.P,J3,1,Pin_1*%
%TO.N,5V_LED*%
X55400000Y20955000D03*
%TD*%
D11*
%TO.P,TP9,1,1*%
%TO.N,Net-(U2-PB09_A7_D7_RX)*%
X45085000Y38735000D03*
%TD*%
D12*
%TO.P,H3,1,1*%
%TO.N,GND*%
X53972221Y-3809637D03*
%TD*%
%TO.P,H2,1,1*%
%TO.N,GND*%
X53971113Y59698784D03*
%TD*%
D13*
%TO.P,J2,1,Pin_1*%
%TO.N,+12V*%
X17657958Y17347995D03*
%TO.P,J2,2,Pin_2*%
%TO.N,GND*%
X19812000Y16002000D03*
%TD*%
D11*
%TO.P,TP12,1,1*%
%TO.N,+3.3V*%
X39370000Y47396400D03*
%TD*%
D14*
%TO.P,H1,*%
%TO.N,*%
X1266105Y27948781D03*
%TD*%
D11*
%TO.P,TP1,1,1*%
%TO.N,Net-(U2-PA02_A0_D0)*%
X12133810Y35658282D03*
%TD*%
D12*
%TO.P,H4,1,1*%
%TO.N,GND*%
X-51438898Y-3801227D03*
%TD*%
D11*
%TO.P,TP3,1,1*%
%TO.N,LED_ENABLE*%
X17667336Y27137396D03*
%TD*%
D12*
%TO.P,H5,1,1*%
%TO.N,GND*%
X-51419685Y59727331D03*
%TD*%
D11*
%TO.P,TP8,1,1*%
%TO.N,Net-(U2-PA7_A8_D8_SCK)*%
X43711202Y40850464D03*
%TD*%
%TO.P,TP4,1,1*%
%TO.N,Net-(U2-PA9_A5_D5_SCL)*%
X19050720Y25007164D03*
%TD*%
%TO.P,TP7,1,1*%
%TO.N,Net-(U2-PA5_A9_D9_MISO)*%
X42337405Y42965925D03*
%TD*%
%TO.P,TP2,1,1*%
%TO.N,Net-(U2-PA11_A3_D3)*%
X16283958Y29267615D03*
%TD*%
%TO.P,TP6,1,1*%
%TO.N,Net-(U2-PA6_A10_D10_MOSI)*%
X40815685Y45309172D03*
%TD*%
%TO.P,TP5,1,1*%
%TO.N,Net-(U2-PB08_A6_D6_TX)*%
X20434109Y22876942D03*
%TD*%
%TO.P,TP14,1,1*%
%TO.N,GND*%
X38049200Y49530000D03*
%TD*%
%TO.P,TP11,1,1*%
%TO.N,Net-(U2-PA4_A1_D1)*%
X13517191Y33528060D03*
%TD*%
%TO.P,TP10,1,1*%
%TO.N,LED_DATA_3.3V*%
X14900577Y31397847D03*
%TD*%
%TO.P,TP13,1,1*%
%TO.N,+5V*%
X36677600Y51663600D03*
%TD*%
D15*
%TO.N,GND*%
X53975000Y34798000D03*
X50292000Y40640000D03*
X32385000Y24130000D03*
X37560250Y18034000D03*
X51689000Y46228000D03*
X53086000Y14986000D03*
X48260000Y52324000D03*
X36449000Y18034000D03*
X45212000Y18034000D03*
X46355000Y13970000D03*
X30226000Y44450000D03*
X41783000Y17018000D03*
X49153900Y13970000D03*
X30480000Y19050000D03*
X50866000Y42098000D03*
X38735000Y14675250D03*
X46990000Y18542000D03*
X34838000Y25780000D03*
X37560250Y14675250D03*
X29845000Y15621000D03*
X34838000Y22479000D03*
%TO.N,+3.3V*%
X48768000Y44069000D03*
X45085000Y42799000D03*
%TO.N,LED_DATA_3.3V*%
X47244000Y34036000D03*
X49784000Y35560000D03*
%TO.N,LED_ENABLE*%
X28702000Y48514000D03*
X26924000Y35052000D03*
%TD*%
D16*
%TO.N,+3.3V*%
X45085000Y42799000D02*
X47498000Y42799000D01*
X47498000Y42799000D02*
X48768000Y44069000D01*
D17*
%TO.N,LED_DATA_3.3V*%
X48260000Y34036000D02*
X47244000Y34036000D01*
X49784000Y35560000D02*
X48260000Y34036000D01*
D16*
%TO.N,LED_ENABLE*%
X28702000Y48514000D02*
X28702000Y36830000D01*
X28702000Y36830000D02*
X26924000Y35052000D01*
%TD*%
%TA.AperFunction,Conductor*%
%TO.N,GND*%
G36*
X58378031Y63480287D02*
G01*
X58414576Y63429987D01*
X58419500Y63398900D01*
X58419500Y-7518900D01*
X58400287Y-7578031D01*
X58349987Y-7614576D01*
X58318900Y-7619500D01*
X49558971Y-7619500D01*
X49505691Y-7604232D01*
X11553152Y16092962D01*
X18656300Y16092962D01*
X18656300Y15911045D01*
X18663254Y15867131D01*
X19164300Y15982807D01*
X19164300Y15938207D01*
X19189191Y15813073D01*
X19221402Y15735306D01*
X18721013Y15619783D01*
X18740969Y15558364D01*
X18823556Y15396280D01*
X18930479Y15249113D01*
X19059113Y15120479D01*
X19206280Y15013556D01*
X19206279Y15013556D01*
X19368364Y14930969D01*
X19541363Y14874759D01*
X19541379Y14874755D01*
X19721037Y14846300D01*
X19902955Y14846300D01*
X19946867Y14853254D01*
X19831191Y15354300D01*
X19875793Y15354300D01*
X20000927Y15379191D01*
X20078690Y15411401D01*
X20194215Y14911012D01*
X20255633Y14930968D01*
X20417719Y15013556D01*
X20564886Y15120479D01*
X20693520Y15249113D01*
X20800443Y15396280D01*
X20883030Y15558364D01*
X20939240Y15731363D01*
X20939244Y15731379D01*
X20967699Y15911037D01*
X20967700Y15911042D01*
X20967700Y16092958D01*
X20967699Y16092962D01*
X20960745Y16136867D01*
X20459700Y16021191D01*
X20459700Y16065793D01*
X20434809Y16190927D01*
X20402597Y16268691D01*
X20902986Y16384215D01*
X20883030Y16445635D01*
X20800443Y16607719D01*
X20693520Y16754886D01*
X20564886Y16883520D01*
X20417719Y16990443D01*
X20417720Y16990443D01*
X20255635Y17073030D01*
X20082636Y17129240D01*
X20082620Y17129244D01*
X19902962Y17157699D01*
X19902958Y17157700D01*
X19721042Y17157700D01*
X19721037Y17157699D01*
X19677130Y17150745D01*
X19792806Y16649700D01*
X19748207Y16649700D01*
X19623073Y16624809D01*
X19545306Y16592597D01*
X19429783Y17092986D01*
X19368364Y17073030D01*
X19206280Y16990443D01*
X19059113Y16883520D01*
X18930479Y16754886D01*
X18823556Y16607719D01*
X18740969Y16445635D01*
X18684759Y16272636D01*
X18684755Y16272620D01*
X18656300Y16092962D01*
X11553152Y16092962D01*
X9397398Y17438994D01*
X16501758Y17438994D01*
X16501758Y17256995D01*
X16530227Y17077255D01*
X16530230Y17077241D01*
X16586465Y16904168D01*
X16586466Y16904166D01*
X16669079Y16742026D01*
X16669089Y16742011D01*
X16776056Y16594782D01*
X16904745Y16466093D01*
X17051974Y16359126D01*
X17051989Y16359116D01*
X17214129Y16276503D01*
X17214131Y16276502D01*
X17387204Y16220267D01*
X17387218Y16220264D01*
X17566958Y16191795D01*
X17566963Y16191795D01*
X17748957Y16191795D01*
X17777210Y16196270D01*
X17928697Y16220264D01*
X17928711Y16220267D01*
X18101784Y16276502D01*
X18101786Y16276503D01*
X18263926Y16359116D01*
X18263934Y16359121D01*
X18263939Y16359124D01*
X18340687Y16414885D01*
X18411170Y16466093D01*
X18539859Y16594782D01*
X18579759Y16649700D01*
X18646829Y16742014D01*
X18646832Y16742020D01*
X18646836Y16742026D01*
X18729449Y16904166D01*
X18729450Y16904168D01*
X18785685Y17077241D01*
X18785685Y17077243D01*
X18785688Y17077251D01*
X18814157Y17256995D01*
X18814158Y17256996D01*
X18814158Y17438993D01*
X18814157Y17438994D01*
X18785688Y17618739D01*
X18729450Y17791822D01*
X18646829Y17953976D01*
X18539858Y18101209D01*
X18411172Y18229895D01*
X18263939Y18336866D01*
X18263928Y18336871D01*
X18263926Y18336873D01*
X18193543Y18372733D01*
X18101785Y18419487D01*
X17928702Y18475725D01*
X17828841Y18491541D01*
X17748957Y18504195D01*
X17748953Y18504195D01*
X17566963Y18504195D01*
X17566959Y18504195D01*
X17477088Y18489960D01*
X17387214Y18475725D01*
X17387206Y18475722D01*
X17387204Y18475722D01*
X17214131Y18419487D01*
X17214129Y18419486D01*
X17051989Y18336873D01*
X17051983Y18336869D01*
X17051977Y18336866D01*
X16941552Y18256637D01*
X16904745Y18229896D01*
X16776056Y18101207D01*
X16722572Y18027592D01*
X16669087Y17953976D01*
X16669084Y17953971D01*
X16669079Y17953963D01*
X16586466Y17791823D01*
X16586465Y17791821D01*
X16530230Y17618748D01*
X16530227Y17618734D01*
X16501758Y17438994D01*
X9397398Y17438994D01*
X2364821Y21830066D01*
X54295500Y21830066D01*
X54295500Y20079934D01*
X54310266Y20005698D01*
X54310267Y20005695D01*
X54366514Y19921517D01*
X54366516Y19921515D01*
X54450700Y19865265D01*
X54524933Y19850500D01*
X56275065Y19850500D01*
X56349301Y19865266D01*
X56349304Y19865267D01*
X56433482Y19921514D01*
X56433484Y19921516D01*
X56489733Y20005698D01*
X56489734Y20005699D01*
X56504500Y20079933D01*
X56504499Y21830066D01*
X56489734Y21904301D01*
X56433484Y21988484D01*
X56349301Y22044734D01*
X56275067Y22059500D01*
X54524934Y22059499D01*
X54450699Y22044734D01*
X54450698Y22044733D01*
X54450695Y22044732D01*
X54366517Y21988485D01*
X54366515Y21988483D01*
X54310265Y21904299D01*
X54295500Y21830066D01*
X2364821Y21830066D01*
X573919Y22948288D01*
X19709709Y22948288D01*
X19709709Y22805595D01*
X19737547Y22665639D01*
X19792152Y22533813D01*
X19871429Y22415165D01*
X19871431Y22415164D01*
X19972331Y22314264D01*
X19972332Y22314262D01*
X20090980Y22234985D01*
X20222806Y22180380D01*
X20327773Y22159501D01*
X20362762Y22152542D01*
X20362763Y22152542D01*
X20505455Y22152542D01*
X20505456Y22152542D01*
X20552107Y22161821D01*
X20645411Y22180380D01*
X20777237Y22234985D01*
X20777238Y22234985D01*
X20777241Y22234987D01*
X20836964Y22274893D01*
X20895885Y22314262D01*
X20996788Y22415165D01*
X21016472Y22444625D01*
X21076064Y22533810D01*
X21130671Y22665642D01*
X21158509Y22805595D01*
X21158509Y22948289D01*
X21130671Y23088242D01*
X21076064Y23220074D01*
X20996787Y23338720D01*
X20895887Y23439620D01*
X20777241Y23518897D01*
X20645409Y23573504D01*
X20505456Y23601342D01*
X20362762Y23601342D01*
X20222809Y23573504D01*
X20222807Y23573503D01*
X20222806Y23573503D01*
X20156893Y23546200D01*
X20090977Y23518897D01*
X20001792Y23459305D01*
X19972332Y23439621D01*
X19871429Y23338718D01*
X19832060Y23279797D01*
X19792154Y23220074D01*
X19792152Y23220071D01*
X19792152Y23220070D01*
X19737547Y23088244D01*
X19709709Y22948288D01*
X573919Y22948288D01*
X-2492181Y24862731D01*
X-2532162Y24910344D01*
X-2539500Y24948062D01*
X-2539500Y28123547D01*
X-1845895Y28123547D01*
X-1845895Y27774015D01*
X-1806759Y27426680D01*
X-1728981Y27085912D01*
X-1613538Y26755994D01*
X-1461882Y26441076D01*
X-1461879Y26441071D01*
X-1275922Y26145124D01*
X-1275916Y26145115D01*
X-1057992Y25871847D01*
X-1057985Y25871839D01*
X-810836Y25624690D01*
X-810828Y25624683D01*
X-537560Y25406759D01*
X-537551Y25406753D01*
X-241604Y25220796D01*
X-241600Y25220794D01*
X73318Y25069138D01*
X149484Y25042486D01*
X403236Y24953694D01*
X744005Y24875916D01*
X1091339Y24836781D01*
X1440871Y24836781D01*
X1788204Y24875916D01*
X2128973Y24953694D01*
X2293933Y25011416D01*
X2458892Y25069138D01*
X2478353Y25078510D01*
X18326320Y25078510D01*
X18326320Y24935817D01*
X18354158Y24795861D01*
X18408763Y24664035D01*
X18488040Y24545387D01*
X18488042Y24545386D01*
X18588942Y24444486D01*
X18588943Y24444484D01*
X18707591Y24365207D01*
X18839417Y24310602D01*
X18944384Y24289723D01*
X18979373Y24282764D01*
X18979374Y24282764D01*
X19122066Y24282764D01*
X19122067Y24282764D01*
X19168718Y24292043D01*
X19262022Y24310602D01*
X19393848Y24365207D01*
X19393849Y24365207D01*
X19393852Y24365209D01*
X19453575Y24405115D01*
X19512496Y24444484D01*
X19613399Y24545387D01*
X19633083Y24574847D01*
X19692675Y24664032D01*
X19747282Y24795864D01*
X19775120Y24935817D01*
X19775120Y25078511D01*
X19747282Y25218464D01*
X19692675Y25350296D01*
X19613398Y25468942D01*
X19512498Y25569842D01*
X19393852Y25649119D01*
X19262020Y25703726D01*
X19122067Y25731564D01*
X18979373Y25731564D01*
X18839420Y25703726D01*
X18839418Y25703725D01*
X18839417Y25703725D01*
X18773504Y25676422D01*
X18707588Y25649119D01*
X18618403Y25589527D01*
X18588943Y25569843D01*
X18488040Y25468940D01*
X18448671Y25410019D01*
X18408765Y25350296D01*
X18408763Y25350293D01*
X18408763Y25350292D01*
X18354158Y25218466D01*
X18326320Y25078510D01*
X2478353Y25078510D01*
X2773810Y25220794D01*
X2773814Y25220796D01*
X3069761Y25406753D01*
X3069770Y25406759D01*
X3343038Y25624683D01*
X3343046Y25624690D01*
X3590195Y25871839D01*
X3590202Y25871847D01*
X3808126Y26145115D01*
X3808132Y26145124D01*
X3994089Y26441071D01*
X3994092Y26441076D01*
X4145748Y26755994D01*
X4261191Y27085912D01*
X4283746Y27184733D01*
X4289226Y27208742D01*
X16942936Y27208742D01*
X16942936Y27066049D01*
X16970774Y26926093D01*
X17025379Y26794267D01*
X17104656Y26675619D01*
X17104658Y26675618D01*
X17205558Y26574718D01*
X17205559Y26574716D01*
X17324207Y26495439D01*
X17456033Y26440834D01*
X17561000Y26419955D01*
X17595989Y26412996D01*
X17595990Y26412996D01*
X17738682Y26412996D01*
X17738683Y26412996D01*
X17785334Y26422275D01*
X17878638Y26440834D01*
X18010464Y26495439D01*
X18010465Y26495439D01*
X18010468Y26495441D01*
X18070191Y26535347D01*
X18129112Y26574716D01*
X18230015Y26675619D01*
X18283718Y26755992D01*
X18309291Y26794264D01*
X18363898Y26926096D01*
X18372644Y26970066D01*
X54295500Y26970066D01*
X54295500Y25219934D01*
X54310266Y25145698D01*
X54310267Y25145695D01*
X54366514Y25061517D01*
X54366516Y25061515D01*
X54450700Y25005265D01*
X54524933Y24990500D01*
X56275065Y24990500D01*
X56349301Y25005266D01*
X56349304Y25005267D01*
X56433482Y25061514D01*
X56433484Y25061516D01*
X56489733Y25145698D01*
X56489734Y25145699D01*
X56504500Y25219933D01*
X56504499Y26970066D01*
X56489734Y27044301D01*
X56433484Y27128484D01*
X56349301Y27184734D01*
X56275067Y27199500D01*
X54524934Y27199499D01*
X54450699Y27184734D01*
X54450698Y27184733D01*
X54450695Y27184732D01*
X54366517Y27128485D01*
X54366515Y27128483D01*
X54310265Y27044299D01*
X54295500Y26970066D01*
X18372644Y26970066D01*
X18391736Y27066049D01*
X18391736Y27208743D01*
X18363898Y27348696D01*
X18309291Y27480528D01*
X18230014Y27599174D01*
X18129114Y27700074D01*
X18010468Y27779351D01*
X17878636Y27833958D01*
X17738683Y27861796D01*
X17595989Y27861796D01*
X17456036Y27833958D01*
X17456034Y27833957D01*
X17456033Y27833957D01*
X17390120Y27806654D01*
X17324204Y27779351D01*
X17235019Y27719759D01*
X17205559Y27700075D01*
X17104656Y27599172D01*
X17065287Y27540251D01*
X17025381Y27480528D01*
X17025379Y27480525D01*
X17025379Y27480524D01*
X16970774Y27348698D01*
X16942936Y27208742D01*
X4289226Y27208742D01*
X4295464Y27236071D01*
X4305113Y27278350D01*
X4338969Y27426680D01*
X4378105Y27774015D01*
X4378105Y28123547D01*
X4338969Y28470882D01*
X4261191Y28811650D01*
X4145748Y29141568D01*
X4050689Y29338961D01*
X15559558Y29338961D01*
X15559558Y29196268D01*
X15587396Y29056312D01*
X15642001Y28924486D01*
X15721278Y28805838D01*
X15721280Y28805837D01*
X15822180Y28704937D01*
X15822181Y28704935D01*
X15940829Y28625658D01*
X16072655Y28571053D01*
X16177622Y28550174D01*
X16212611Y28543215D01*
X16212612Y28543215D01*
X16355304Y28543215D01*
X16355305Y28543215D01*
X16401956Y28552494D01*
X16495260Y28571053D01*
X16627086Y28625658D01*
X16627087Y28625658D01*
X16627090Y28625660D01*
X16686813Y28665566D01*
X16745734Y28704935D01*
X16846637Y28805838D01*
X16866321Y28835298D01*
X16925913Y28924483D01*
X16980520Y29056315D01*
X17008358Y29196268D01*
X17008358Y29338962D01*
X16980520Y29478915D01*
X16925913Y29610747D01*
X16846636Y29729393D01*
X16745736Y29830293D01*
X16627090Y29909570D01*
X16495258Y29964177D01*
X16355305Y29992015D01*
X16212611Y29992015D01*
X16072658Y29964177D01*
X16072656Y29964176D01*
X16072655Y29964176D01*
X16028138Y29945736D01*
X15940826Y29909570D01*
X15851641Y29849978D01*
X15822181Y29830294D01*
X15721278Y29729391D01*
X15681909Y29670470D01*
X15642003Y29610747D01*
X15642001Y29610744D01*
X15642001Y29610743D01*
X15587396Y29478917D01*
X15559558Y29338961D01*
X4050689Y29338961D01*
X3994092Y29456486D01*
X3808129Y29752443D01*
X3590199Y30025719D01*
X3343043Y30272875D01*
X3069767Y30490805D01*
X2773810Y30676768D01*
X2458892Y30828424D01*
X2128974Y30943867D01*
X1788206Y31021645D01*
X1440871Y31060781D01*
X1091339Y31060781D01*
X744004Y31021645D01*
X403236Y30943867D01*
X73318Y30828424D01*
X-241600Y30676768D01*
X-537557Y30490805D01*
X-810833Y30272875D01*
X-1057989Y30025719D01*
X-1275919Y29752443D01*
X-1461882Y29456486D01*
X-1613538Y29141568D01*
X-1728981Y28811650D01*
X-1806759Y28470882D01*
X-1845895Y28123547D01*
X-2539500Y28123547D01*
X-2539500Y30424396D01*
X-2520287Y30483527D01*
X-2492776Y30509354D01*
X-979184Y31469193D01*
X14176177Y31469193D01*
X14176177Y31326500D01*
X14204015Y31186544D01*
X14258620Y31054718D01*
X14337897Y30936070D01*
X14337899Y30936069D01*
X14438799Y30835169D01*
X14438800Y30835167D01*
X14557448Y30755890D01*
X14689274Y30701285D01*
X14794241Y30680406D01*
X14829230Y30673447D01*
X14829231Y30673447D01*
X14971923Y30673447D01*
X14971924Y30673447D01*
X15018575Y30682726D01*
X15111879Y30701285D01*
X15243705Y30755890D01*
X15243706Y30755890D01*
X15243709Y30755892D01*
X15303432Y30795798D01*
X15362353Y30835167D01*
X15463255Y30936069D01*
X15542532Y31054715D01*
X15597139Y31186547D01*
X15624977Y31326500D01*
X15624977Y31469194D01*
X15597139Y31609147D01*
X15542532Y31740979D01*
X15463255Y31859625D01*
X15412864Y31910016D01*
X54296000Y31910016D01*
X54296000Y31162000D01*
X54916392Y31162000D01*
X54900000Y31100826D01*
X54900000Y30969174D01*
X54916392Y30908000D01*
X54296001Y30908000D01*
X54296001Y30159983D01*
X54310736Y30085894D01*
X54366876Y30001876D01*
X54450894Y29945736D01*
X54524984Y29931000D01*
X55273000Y29931000D01*
X55273000Y30551391D01*
X55334174Y30535000D01*
X55465826Y30535000D01*
X55527000Y30551391D01*
X55527000Y29931000D01*
X56275016Y29931000D01*
X56349105Y29945736D01*
X56433123Y30001876D01*
X56489263Y30085894D01*
X56504000Y30159983D01*
X56504000Y30908000D01*
X55883608Y30908000D01*
X55900000Y30969174D01*
X55900000Y31100826D01*
X55883608Y31162000D01*
X56503999Y31162000D01*
X56503999Y31910016D01*
X56489263Y31984105D01*
X56433123Y32068123D01*
X56349105Y32124263D01*
X56275016Y32138999D01*
X55527000Y32138999D01*
X55527000Y31518608D01*
X55465826Y31535000D01*
X55334174Y31535000D01*
X55273000Y31518608D01*
X55273000Y32138999D01*
X54524983Y32138999D01*
X54450894Y32124263D01*
X54366876Y32068123D01*
X54310736Y31984105D01*
X54296000Y31910016D01*
X15412864Y31910016D01*
X15362355Y31960525D01*
X15243709Y32039802D01*
X15111877Y32094409D01*
X14971924Y32122247D01*
X14829230Y32122247D01*
X14689277Y32094409D01*
X14689275Y32094408D01*
X14689274Y32094408D01*
X14625817Y32068123D01*
X14557445Y32039802D01*
X14474089Y31984105D01*
X14438800Y31960526D01*
X14337897Y31859623D01*
X14298528Y31800702D01*
X14258622Y31740979D01*
X14258620Y31740976D01*
X14258620Y31740975D01*
X14204015Y31609149D01*
X14176177Y31469193D01*
X-979184Y31469193D01*
X-837417Y31559094D01*
X2379998Y33599406D01*
X12792791Y33599406D01*
X12792791Y33456713D01*
X12820629Y33316757D01*
X12875234Y33184931D01*
X12954511Y33066283D01*
X12954513Y33066282D01*
X13055413Y32965382D01*
X13055414Y32965380D01*
X13174062Y32886103D01*
X13305888Y32831498D01*
X13410855Y32810619D01*
X13445844Y32803660D01*
X13445845Y32803660D01*
X13588537Y32803660D01*
X13588538Y32803660D01*
X13635189Y32812939D01*
X13728493Y32831498D01*
X13860319Y32886103D01*
X13860320Y32886103D01*
X13860323Y32886105D01*
X13920046Y32926011D01*
X13978967Y32965380D01*
X14079870Y33066283D01*
X14099554Y33095743D01*
X14159146Y33184928D01*
X14213753Y33316760D01*
X14241591Y33456713D01*
X14241591Y33599407D01*
X14213753Y33739360D01*
X14159146Y33871192D01*
X14079869Y33989838D01*
X13978969Y34090738D01*
X13960693Y34102950D01*
X46735500Y34102950D01*
X46735500Y33969049D01*
X46770151Y33839729D01*
X46770151Y33839728D01*
X46837099Y33723773D01*
X46931773Y33629099D01*
X47047728Y33562151D01*
X47177049Y33527500D01*
X47177055Y33527500D01*
X47310950Y33527500D01*
X47440270Y33562151D01*
X47440271Y33562151D01*
X47451474Y33568619D01*
X47466894Y33577522D01*
X47517194Y33591000D01*
X48318588Y33591000D01*
X48375174Y33606163D01*
X48375174Y33606162D01*
X48375175Y33606163D01*
X48431759Y33621324D01*
X48431765Y33621326D01*
X48533236Y33679911D01*
X49905484Y35052159D01*
X49950579Y35078195D01*
X49980272Y35086152D01*
X50096226Y35153099D01*
X50190900Y35247773D01*
X50191190Y35248274D01*
X50257847Y35363726D01*
X50257982Y35364229D01*
X50292499Y35493049D01*
X50292500Y35493056D01*
X50292500Y35626943D01*
X50292499Y35626950D01*
X50257848Y35756270D01*
X50257848Y35756271D01*
X50257847Y35756271D01*
X50257847Y35756274D01*
X50190901Y35872226D01*
X50096226Y35966901D01*
X49980274Y36033847D01*
X49980271Y36033847D01*
X49980271Y36033848D01*
X49850950Y36068499D01*
X49850947Y36068499D01*
X49850945Y36068500D01*
X49717055Y36068500D01*
X49717053Y36068499D01*
X49717049Y36068499D01*
X49587729Y36033848D01*
X49587728Y36033848D01*
X49587726Y36033847D01*
X49471774Y35966901D01*
X49471773Y35966900D01*
X49377099Y35872226D01*
X49310152Y35756272D01*
X49302195Y35726579D01*
X49276159Y35681484D01*
X48105140Y34510465D01*
X48049742Y34482239D01*
X48034005Y34481000D01*
X47517194Y34481000D01*
X47466894Y34494477D01*
X47440274Y34509847D01*
X47440271Y34509847D01*
X47440271Y34509848D01*
X47310950Y34544499D01*
X47310947Y34544499D01*
X47310945Y34544500D01*
X47177055Y34544500D01*
X47177053Y34544499D01*
X47177049Y34544499D01*
X47047729Y34509848D01*
X47047728Y34509848D01*
X47047726Y34509847D01*
X46931774Y34442901D01*
X46931773Y34442900D01*
X46837099Y34348226D01*
X46770151Y34232271D01*
X46770151Y34232270D01*
X46735500Y34102950D01*
X13960693Y34102950D01*
X13860323Y34170015D01*
X13728491Y34224622D01*
X13588538Y34252460D01*
X13445844Y34252460D01*
X13305891Y34224622D01*
X13305889Y34224621D01*
X13305888Y34224621D01*
X13239975Y34197318D01*
X13174059Y34170015D01*
X13084874Y34110423D01*
X13055414Y34090739D01*
X12954511Y33989836D01*
X12940626Y33969055D01*
X12875236Y33871192D01*
X12875234Y33871189D01*
X12875234Y33871188D01*
X12820629Y33739362D01*
X12792791Y33599406D01*
X2379998Y33599406D01*
X2521765Y33689307D01*
X5739194Y35729628D01*
X11409410Y35729628D01*
X11409410Y35586935D01*
X11437248Y35446979D01*
X11491853Y35315153D01*
X11571130Y35196505D01*
X11571132Y35196504D01*
X11672032Y35095604D01*
X11672033Y35095602D01*
X11790681Y35016325D01*
X11922507Y34961720D01*
X12027474Y34940841D01*
X12062463Y34933882D01*
X12062464Y34933882D01*
X12205156Y34933882D01*
X12205157Y34933882D01*
X12251808Y34943161D01*
X12345112Y34961720D01*
X12476938Y35016325D01*
X12476939Y35016325D01*
X12476942Y35016327D01*
X12569534Y35078195D01*
X12595586Y35095602D01*
X12618934Y35118950D01*
X26415500Y35118950D01*
X26415500Y34985049D01*
X26450151Y34855729D01*
X26450151Y34855728D01*
X26517101Y34739770D01*
X26611770Y34645101D01*
X26727728Y34578151D01*
X26857049Y34543500D01*
X26857055Y34543500D01*
X26990950Y34543500D01*
X27120270Y34578151D01*
X27120271Y34578151D01*
X27148180Y34594264D01*
X27236227Y34645099D01*
X29108901Y36517774D01*
X29175847Y36633726D01*
X29175848Y36633729D01*
X29210499Y36763049D01*
X29210500Y36763056D01*
X29210500Y38806346D01*
X44360600Y38806346D01*
X44360600Y38663653D01*
X44388438Y38523697D01*
X44443043Y38391871D01*
X44522320Y38273223D01*
X44522322Y38273222D01*
X44623222Y38172322D01*
X44623223Y38172320D01*
X44741871Y38093043D01*
X44873697Y38038438D01*
X44978664Y38017559D01*
X45013653Y38010600D01*
X45013654Y38010600D01*
X45156346Y38010600D01*
X45156347Y38010600D01*
X45202998Y38019879D01*
X45296302Y38038438D01*
X45428128Y38093043D01*
X45428129Y38093043D01*
X45428132Y38093045D01*
X45487855Y38132951D01*
X45546776Y38172320D01*
X45647679Y38273223D01*
X45667363Y38302683D01*
X45726955Y38391868D01*
X45781562Y38523700D01*
X45809400Y38663653D01*
X45809400Y38806347D01*
X45781562Y38946300D01*
X45726955Y39078132D01*
X45647678Y39196778D01*
X45546778Y39297678D01*
X45428132Y39376955D01*
X45296300Y39431562D01*
X45156347Y39459400D01*
X45013653Y39459400D01*
X44873700Y39431562D01*
X44873698Y39431561D01*
X44873697Y39431561D01*
X44807784Y39404258D01*
X44741868Y39376955D01*
X44652683Y39317363D01*
X44623223Y39297679D01*
X44522320Y39196776D01*
X44482951Y39137855D01*
X44443045Y39078132D01*
X44443043Y39078129D01*
X44443043Y39078128D01*
X44388438Y38946302D01*
X44360600Y38806346D01*
X29210500Y38806346D01*
X29210500Y40921810D01*
X42986802Y40921810D01*
X42986802Y40779117D01*
X43014640Y40639161D01*
X43069245Y40507335D01*
X43148522Y40388687D01*
X43148524Y40388686D01*
X43249424Y40287786D01*
X43249425Y40287784D01*
X43368073Y40208507D01*
X43499899Y40153902D01*
X43604866Y40133023D01*
X43639855Y40126064D01*
X43639856Y40126064D01*
X43782548Y40126064D01*
X43782549Y40126064D01*
X43829200Y40135343D01*
X43922504Y40153902D01*
X44054330Y40208507D01*
X44054331Y40208507D01*
X44054334Y40208509D01*
X44114057Y40248415D01*
X44172978Y40287784D01*
X44273881Y40388687D01*
X44293565Y40418147D01*
X44353157Y40507332D01*
X44407764Y40639164D01*
X44435602Y40779117D01*
X44435602Y40921811D01*
X44407764Y41061764D01*
X44353157Y41193596D01*
X44273880Y41312242D01*
X44172980Y41413142D01*
X44054334Y41492419D01*
X43922502Y41547026D01*
X43782549Y41574864D01*
X43639855Y41574864D01*
X43499902Y41547026D01*
X43499900Y41547025D01*
X43499899Y41547025D01*
X43433986Y41519722D01*
X43368070Y41492419D01*
X43278885Y41432827D01*
X43249425Y41413143D01*
X43148522Y41312240D01*
X43109153Y41253319D01*
X43069247Y41193596D01*
X43069245Y41193593D01*
X43069245Y41193592D01*
X43014640Y41061766D01*
X42986802Y40921810D01*
X29210500Y40921810D01*
X29210500Y43037271D01*
X41613005Y43037271D01*
X41613005Y42894578D01*
X41640843Y42754622D01*
X41695448Y42622796D01*
X41774725Y42504148D01*
X41774727Y42504147D01*
X41875627Y42403247D01*
X41875628Y42403245D01*
X41994276Y42323968D01*
X42126102Y42269363D01*
X42231069Y42248484D01*
X42266058Y42241525D01*
X42266059Y42241525D01*
X42408751Y42241525D01*
X42408752Y42241525D01*
X42455403Y42250804D01*
X42548707Y42269363D01*
X42680533Y42323968D01*
X42680534Y42323968D01*
X42680537Y42323970D01*
X42740260Y42363876D01*
X42799181Y42403245D01*
X42900084Y42504148D01*
X42919768Y42533608D01*
X42979360Y42622793D01*
X43033967Y42754625D01*
X43056111Y42865950D01*
X44576500Y42865950D01*
X44576500Y42732049D01*
X44611151Y42602729D01*
X44611151Y42602728D01*
X44678099Y42486773D01*
X44772773Y42392099D01*
X44888728Y42325151D01*
X45018049Y42290500D01*
X45018055Y42290500D01*
X47564950Y42290500D01*
X47694270Y42325151D01*
X47694271Y42325151D01*
X47722180Y42341264D01*
X47810227Y42392099D01*
X49174901Y43756773D01*
X49241847Y43872726D01*
X49241848Y43872729D01*
X49276499Y44002049D01*
X49276500Y44002056D01*
X49276500Y44135943D01*
X49276499Y44135950D01*
X49241848Y44265270D01*
X49241848Y44265271D01*
X49241847Y44265271D01*
X49241847Y44265274D01*
X49174901Y44381226D01*
X49080226Y44475901D01*
X48964274Y44542847D01*
X48964271Y44542847D01*
X48964271Y44542848D01*
X48834950Y44577499D01*
X48834947Y44577499D01*
X48834945Y44577500D01*
X48701055Y44577500D01*
X48701053Y44577499D01*
X48701049Y44577499D01*
X48571729Y44542848D01*
X48571728Y44542848D01*
X48571726Y44542847D01*
X48455773Y44475901D01*
X48455770Y44475898D01*
X47316837Y43336965D01*
X47261439Y43308739D01*
X47245702Y43307500D01*
X45018055Y43307500D01*
X45018053Y43307499D01*
X45018049Y43307499D01*
X44888729Y43272848D01*
X44888728Y43272848D01*
X44888726Y43272847D01*
X44772774Y43205901D01*
X44772773Y43205900D01*
X44678099Y43111226D01*
X44611151Y42995271D01*
X44611151Y42995270D01*
X44576500Y42865950D01*
X43056111Y42865950D01*
X43061805Y42894578D01*
X43061805Y43037272D01*
X43033967Y43177225D01*
X42979360Y43309057D01*
X42900083Y43427703D01*
X42799183Y43528603D01*
X42680537Y43607880D01*
X42548705Y43662487D01*
X42408752Y43690325D01*
X42266058Y43690325D01*
X42126105Y43662487D01*
X42126103Y43662486D01*
X42126102Y43662486D01*
X42060189Y43635183D01*
X41994273Y43607880D01*
X41905088Y43548288D01*
X41875628Y43528604D01*
X41774725Y43427701D01*
X41735356Y43368780D01*
X41695450Y43309057D01*
X41695448Y43309054D01*
X41695448Y43309053D01*
X41640843Y43177227D01*
X41613005Y43037271D01*
X29210500Y43037271D01*
X29210500Y45380518D01*
X40091285Y45380518D01*
X40091285Y45237825D01*
X40119123Y45097869D01*
X40173728Y44966043D01*
X40253005Y44847395D01*
X40253007Y44847394D01*
X40353907Y44746494D01*
X40353908Y44746492D01*
X40472556Y44667215D01*
X40604382Y44612610D01*
X40709349Y44591731D01*
X40744338Y44584772D01*
X40744339Y44584772D01*
X40887031Y44584772D01*
X40887032Y44584772D01*
X40933683Y44594051D01*
X41026987Y44612610D01*
X41158813Y44667215D01*
X41158814Y44667215D01*
X41158817Y44667217D01*
X41218540Y44707123D01*
X41277461Y44746492D01*
X41378364Y44847395D01*
X41398048Y44876855D01*
X41457640Y44966040D01*
X41512247Y45097872D01*
X41540085Y45237825D01*
X41540085Y45380519D01*
X41512247Y45520472D01*
X41457640Y45652304D01*
X41378363Y45770950D01*
X41277463Y45871850D01*
X41158817Y45951127D01*
X41026985Y46005734D01*
X40887032Y46033572D01*
X40744338Y46033572D01*
X40604385Y46005734D01*
X40604383Y46005733D01*
X40604382Y46005733D01*
X40538469Y45978430D01*
X40472553Y45951127D01*
X40383368Y45891535D01*
X40353908Y45871851D01*
X40253005Y45770948D01*
X40213636Y45712027D01*
X40173730Y45652304D01*
X40173728Y45652301D01*
X40173728Y45652300D01*
X40119123Y45520474D01*
X40091285Y45380518D01*
X29210500Y45380518D01*
X29210500Y47467746D01*
X38645600Y47467746D01*
X38645600Y47325053D01*
X38673438Y47185097D01*
X38728043Y47053271D01*
X38807320Y46934623D01*
X38807322Y46934622D01*
X38908222Y46833722D01*
X38908223Y46833720D01*
X39026871Y46754443D01*
X39158697Y46699838D01*
X39263664Y46678959D01*
X39298653Y46672000D01*
X39298654Y46672000D01*
X39441346Y46672000D01*
X39441347Y46672000D01*
X39487998Y46681279D01*
X39581302Y46699838D01*
X39713128Y46754443D01*
X39713129Y46754443D01*
X39713132Y46754445D01*
X39772855Y46794351D01*
X39831776Y46833720D01*
X39932679Y46934623D01*
X39952363Y46964083D01*
X40011955Y47053268D01*
X40066562Y47185100D01*
X40094400Y47325053D01*
X40094400Y47467747D01*
X40066562Y47607700D01*
X40011955Y47739532D01*
X39932678Y47858178D01*
X39831778Y47959078D01*
X39713132Y48038355D01*
X39581300Y48092962D01*
X39441347Y48120800D01*
X39298653Y48120800D01*
X39158700Y48092962D01*
X39158698Y48092961D01*
X39158697Y48092961D01*
X39092784Y48065658D01*
X39026868Y48038355D01*
X38937683Y47978763D01*
X38908223Y47959079D01*
X38807320Y47858176D01*
X38767951Y47799255D01*
X38728045Y47739532D01*
X38728043Y47739529D01*
X38728043Y47739528D01*
X38673438Y47607702D01*
X38645600Y47467746D01*
X29210500Y47467746D01*
X29210500Y48580943D01*
X29210499Y48580950D01*
X29175848Y48710270D01*
X29175848Y48710271D01*
X29175847Y48710271D01*
X29175847Y48710274D01*
X29108901Y48826226D01*
X29014226Y48920901D01*
X28898274Y48987847D01*
X28898271Y48987847D01*
X28898271Y48987848D01*
X28768950Y49022499D01*
X28768947Y49022499D01*
X28768945Y49022500D01*
X28635055Y49022500D01*
X28635053Y49022499D01*
X28635049Y49022499D01*
X28505729Y48987848D01*
X28505728Y48987848D01*
X28505726Y48987847D01*
X28389774Y48920901D01*
X28389773Y48920900D01*
X28295099Y48826226D01*
X28228151Y48710271D01*
X28228151Y48710270D01*
X28193500Y48580950D01*
X28193500Y37082297D01*
X28174287Y37023166D01*
X28164035Y37011162D01*
X26517099Y35364227D01*
X26466264Y35276180D01*
X26450151Y35248271D01*
X26450151Y35248270D01*
X26415500Y35118950D01*
X12618934Y35118950D01*
X12696489Y35196505D01*
X12730745Y35247773D01*
X12775765Y35315150D01*
X12830372Y35446982D01*
X12858210Y35586935D01*
X12858210Y35729629D01*
X12830372Y35869582D01*
X12775765Y36001414D01*
X12696488Y36120060D01*
X12595588Y36220960D01*
X12476942Y36300237D01*
X12345110Y36354844D01*
X12205157Y36382682D01*
X12062463Y36382682D01*
X11922510Y36354844D01*
X11922508Y36354843D01*
X11922507Y36354843D01*
X11856594Y36327540D01*
X11790678Y36300237D01*
X11701493Y36240645D01*
X11672033Y36220961D01*
X11571130Y36120058D01*
X11536681Y36068500D01*
X11491855Y36001414D01*
X11491853Y36001411D01*
X11491853Y36001410D01*
X11437248Y35869584D01*
X11409410Y35729628D01*
X5739194Y35729628D01*
X5880961Y35819529D01*
X27613749Y49601297D01*
X37325300Y49601297D01*
X37325300Y49458702D01*
X37353119Y49318843D01*
X37407686Y49187108D01*
X37407690Y49187100D01*
X37455356Y49115762D01*
X37455357Y49115762D01*
X37792471Y49452876D01*
X37823103Y49378927D01*
X37898127Y49303903D01*
X37972077Y49273271D01*
X37634962Y48936157D01*
X37634962Y48936156D01*
X37706300Y48888490D01*
X37706308Y48888486D01*
X37838043Y48833919D01*
X37977903Y48806100D01*
X38120497Y48806100D01*
X38260356Y48833919D01*
X38392091Y48888486D01*
X38392099Y48888490D01*
X38463436Y48936156D01*
X38463436Y48936157D01*
X38126322Y49273271D01*
X38200273Y49303903D01*
X38275297Y49378927D01*
X38305928Y49452875D01*
X38643041Y49115762D01*
X38643042Y49115762D01*
X38690709Y49187100D01*
X38690713Y49187108D01*
X38745280Y49318843D01*
X38773100Y49458702D01*
X38773100Y49601297D01*
X38745280Y49741156D01*
X38690715Y49872887D01*
X38690707Y49872902D01*
X38643042Y49944236D01*
X38643041Y49944236D01*
X38305928Y49607123D01*
X38275297Y49681073D01*
X38200273Y49756097D01*
X38126323Y49786728D01*
X38463436Y50123841D01*
X38463436Y50123842D01*
X38392102Y50171507D01*
X38392087Y50171515D01*
X38260356Y50226080D01*
X38120497Y50253900D01*
X37977903Y50253900D01*
X37838043Y50226080D01*
X37706308Y50171513D01*
X37706300Y50171509D01*
X37634962Y50123842D01*
X37634962Y50123841D01*
X37972076Y49786728D01*
X37898127Y49756097D01*
X37823103Y49681073D01*
X37792471Y49607122D01*
X37455357Y49944236D01*
X37455356Y49944236D01*
X37407690Y49872899D01*
X37407686Y49872891D01*
X37353119Y49741156D01*
X37325300Y49601297D01*
X27613749Y49601297D01*
X27755516Y49691198D01*
X28512614Y50171309D01*
X30978349Y51734946D01*
X35953200Y51734946D01*
X35953200Y51592253D01*
X35981038Y51452297D01*
X36035643Y51320471D01*
X36114920Y51201823D01*
X36114922Y51201822D01*
X36215822Y51100922D01*
X36215823Y51100920D01*
X36334471Y51021643D01*
X36466297Y50967038D01*
X36571264Y50946159D01*
X36606253Y50939200D01*
X36606254Y50939200D01*
X36748946Y50939200D01*
X36748947Y50939200D01*
X36795598Y50948479D01*
X36888902Y50967038D01*
X37020728Y51021643D01*
X37020729Y51021643D01*
X37020732Y51021645D01*
X37080455Y51061551D01*
X37139376Y51100920D01*
X37240279Y51201823D01*
X37259963Y51231283D01*
X37319555Y51320468D01*
X37374162Y51452300D01*
X37402000Y51592253D01*
X37402000Y51734947D01*
X37374162Y51874900D01*
X37319555Y52006732D01*
X37240278Y52125378D01*
X37139378Y52226278D01*
X37020732Y52305555D01*
X36888900Y52360162D01*
X36748947Y52388000D01*
X36606253Y52388000D01*
X36466300Y52360162D01*
X36466298Y52360161D01*
X36466297Y52360161D01*
X36400384Y52332858D01*
X36334468Y52305555D01*
X36245283Y52245963D01*
X36215823Y52226279D01*
X36114920Y52125376D01*
X36075551Y52066455D01*
X36035645Y52006732D01*
X36035643Y52006729D01*
X36035643Y52006728D01*
X35981038Y51874902D01*
X35953200Y51734946D01*
X30978349Y51734946D01*
X31120116Y51824847D01*
X49505480Y63483858D01*
X49559356Y63499500D01*
X58318900Y63499500D01*
X58378031Y63480287D01*
G37*
%TD.AperFunction*%
%TD*%
M02*
