%TF.GenerationSoftware,KiCad,Pcbnew,8.0.5*%
%TF.CreationDate,2025-03-21T14:04:30-04:00*%
%TF.ProjectId,rv_light,72765f6c-6967-4687-942e-6b696361645f,rev?*%
%TF.SameCoordinates,Original*%
%TF.FileFunction,Legend,Top*%
%TF.FilePolarity,Positive*%
%FSLAX46Y46*%
G04 Gerber Fmt 4.6, Leading zero omitted, Abs format (unit mm)*
G04 Created by KiCad (PCBNEW 8.0.5) date 2025-03-21 14:04:30*
%MOMM*%
%LPD*%
G01*
G04 APERTURE LIST*
%ADD10C,0.203200*%
%ADD11C,0.508000*%
%ADD12C,0.150000*%
%ADD13C,0.381000*%
%ADD14C,0.120000*%
%ADD15C,0.127000*%
%ADD16C,0.000000*%
G04 APERTURE END LIST*
D10*
X35718310Y48774848D02*
X35584544Y48755011D01*
X35584544Y48755011D02*
X35435926Y48650948D01*
X35435926Y48650948D02*
X35321996Y48497346D01*
X35321996Y48497346D02*
X35292293Y48328892D01*
X35292293Y48328892D02*
X35312130Y48195126D01*
X35312130Y48195126D02*
X35401341Y47962281D01*
X35401341Y47962281D02*
X35505405Y47813664D01*
X35505405Y47813664D02*
X35693695Y47650195D01*
X35693695Y47650195D02*
X35812609Y47585804D01*
X35812609Y47585804D02*
X35981063Y47556101D01*
X35981063Y47556101D02*
X36164368Y47610625D01*
X36164368Y47610625D02*
X36263447Y47680001D01*
X36263447Y47680001D02*
X36377377Y47833603D01*
X36377377Y47833603D02*
X36392228Y47917830D01*
X36392228Y47917830D02*
X36149414Y48264604D01*
X36149414Y48264604D02*
X35951257Y48125853D01*
X36907456Y48130941D02*
X36179014Y49171264D01*
X36179014Y49171264D02*
X37501927Y48547193D01*
X37501927Y48547193D02*
X36773485Y49587517D01*
X37997318Y48894071D02*
X37268876Y49934394D01*
X37268876Y49934394D02*
X37516572Y50107832D01*
X37516572Y50107832D02*
X37699878Y50162356D01*
X37699878Y50162356D02*
X37868331Y50132653D01*
X37868331Y50132653D02*
X37987246Y50068263D01*
X37987246Y50068263D02*
X38175536Y49904793D01*
X38175536Y49904793D02*
X38279599Y49756176D01*
X38279599Y49756176D02*
X38368811Y49523331D01*
X38368811Y49523331D02*
X38388647Y49389565D01*
X38388647Y49389565D02*
X38358944Y49221111D01*
X38358944Y49221111D02*
X38245014Y49067509D01*
X38245014Y49067509D02*
X37997318Y48894071D01*
X11356133Y27971499D02*
X10627691Y29011822D01*
X10627691Y29011822D02*
X10875387Y29185260D01*
X10875387Y29185260D02*
X11058692Y29239784D01*
X11058692Y29239784D02*
X11227146Y29210081D01*
X11227146Y29210081D02*
X11346061Y29145691D01*
X11346061Y29145691D02*
X11534351Y28982222D01*
X11534351Y28982222D02*
X11638414Y28833604D01*
X11638414Y28833604D02*
X11727626Y28600760D01*
X11727626Y28600760D02*
X11747462Y28466994D01*
X11747462Y28466994D02*
X11717759Y28298540D01*
X11717759Y28298540D02*
X11603829Y28144937D01*
X11603829Y28144937D02*
X11356133Y27971499D01*
X12138791Y28962488D02*
X12634183Y29309365D01*
X12247839Y28595878D02*
X11866171Y29879015D01*
X11866171Y29879015D02*
X12941387Y29081506D01*
X12411102Y30260579D02*
X13005572Y30676832D01*
X13436779Y29428383D02*
X12708337Y30468706D01*
X13823123Y30141870D02*
X14318515Y30488748D01*
X13932171Y29775260D02*
X13550503Y31058397D01*
X13550503Y31058397D02*
X14625720Y30260888D01*
X8931483Y21726806D02*
X8436091Y21379929D01*
X8436091Y21379929D02*
X8733429Y20849850D01*
X8733429Y20849850D02*
X8748281Y20934077D01*
X8748281Y20934077D02*
X8812671Y21052991D01*
X8812671Y21052991D02*
X9060367Y21226430D01*
X9060367Y21226430D02*
X9194134Y21246266D01*
X9194134Y21246266D02*
X9278360Y21231415D01*
X9278360Y21231415D02*
X9397275Y21167024D01*
X9397275Y21167024D02*
X9570714Y20919328D01*
X9570714Y20919328D02*
X9590550Y20785562D01*
X9590550Y20785562D02*
X9575698Y20701335D01*
X9575698Y20701335D02*
X9511308Y20582420D01*
X9511308Y20582420D02*
X9263612Y20408982D01*
X9263612Y20408982D02*
X9129846Y20389145D01*
X9129846Y20389145D02*
X9045619Y20403997D01*
X9278258Y21969621D02*
X10353474Y21172112D01*
X10353474Y21172112D02*
X9971807Y22455249D01*
X10868702Y21385222D02*
X11661329Y21940226D01*
X12335042Y22559620D02*
X11839650Y22212743D01*
X11839650Y22212743D02*
X11111208Y23253066D01*
X12300251Y23347365D02*
X12647025Y23590179D01*
X13177208Y23149311D02*
X12681816Y22802434D01*
X12681816Y22802434D02*
X11953374Y23842757D01*
X11953374Y23842757D02*
X12448766Y24189634D01*
X13623061Y23461501D02*
X12894619Y24501824D01*
X12894619Y24501824D02*
X13142315Y24675262D01*
X13142315Y24675262D02*
X13325620Y24729786D01*
X13325620Y24729786D02*
X13494074Y24700083D01*
X13494074Y24700083D02*
X13612988Y24635693D01*
X13612988Y24635693D02*
X13801279Y24472224D01*
X13801279Y24472224D02*
X13905342Y24323606D01*
X13905342Y24323606D02*
X13994553Y24090762D01*
X13994553Y24090762D02*
X14014390Y23956995D01*
X14014390Y23956995D02*
X13984687Y23788542D01*
X13984687Y23788542D02*
X13870757Y23634939D01*
X13870757Y23634939D02*
X13623061Y23461501D01*
X14485063Y23917426D02*
X15277690Y24472429D01*
X15074446Y25289877D02*
X15421220Y25532691D01*
X15951403Y25091823D02*
X15456011Y24744946D01*
X15456011Y24744946D02*
X14727569Y25785269D01*
X14727569Y25785269D02*
X15222961Y26132147D01*
X16397256Y25404013D02*
X15668814Y26444336D01*
X15668814Y26444336D02*
X16991726Y25820266D01*
X16991726Y25820266D02*
X16263284Y26860589D01*
X34491083Y50694699D02*
X33995691Y50347822D01*
X33995691Y50347822D02*
X34293029Y49817742D01*
X34293029Y49817742D02*
X34307881Y49901969D01*
X34307881Y49901969D02*
X34372271Y50020884D01*
X34372271Y50020884D02*
X34619967Y50194322D01*
X34619967Y50194322D02*
X34753733Y50214159D01*
X34753733Y50214159D02*
X34837960Y50199307D01*
X34837960Y50199307D02*
X34956875Y50134916D01*
X34956875Y50134916D02*
X35130313Y49887220D01*
X35130313Y49887220D02*
X35150150Y49753454D01*
X35150150Y49753454D02*
X35135298Y49669227D01*
X35135298Y49669227D02*
X35070908Y49550313D01*
X35070908Y49550313D02*
X34823212Y49376874D01*
X34823212Y49376874D02*
X34689445Y49357038D01*
X34689445Y49357038D02*
X34605219Y49371889D01*
X34837858Y50937513D02*
X35913074Y50140004D01*
X35913074Y50140004D02*
X35531406Y51423141D01*
X36563613Y46341446D02*
X37207622Y46792387D01*
X37207622Y46792387D02*
X37138350Y46153259D01*
X37138350Y46153259D02*
X37286967Y46257322D01*
X37286967Y46257322D02*
X37420733Y46277159D01*
X37420733Y46277159D02*
X37504960Y46262307D01*
X37504960Y46262307D02*
X37623875Y46197916D01*
X37623875Y46197916D02*
X37797313Y45950220D01*
X37797313Y45950220D02*
X37817150Y45816454D01*
X37817150Y45816454D02*
X37802298Y45732227D01*
X37802298Y45732227D02*
X37737908Y45613313D01*
X37737908Y45613313D02*
X37440672Y45405186D01*
X37440672Y45405186D02*
X37306906Y45385350D01*
X37306906Y45385350D02*
X37222679Y45400202D01*
X38312542Y46163332D02*
X38396769Y46148480D01*
X38396769Y46148480D02*
X38381917Y46064253D01*
X38381917Y46064253D02*
X38297690Y46079105D01*
X38297690Y46079105D02*
X38312542Y46163332D01*
X38312542Y46163332D02*
X38381917Y46064253D01*
X38049789Y47382078D02*
X38693798Y47833018D01*
X38693798Y47833018D02*
X38624526Y47193891D01*
X38624526Y47193891D02*
X38773143Y47297954D01*
X38773143Y47297954D02*
X38906909Y47317790D01*
X38906909Y47317790D02*
X38991136Y47302939D01*
X38991136Y47302939D02*
X39110051Y47238548D01*
X39110051Y47238548D02*
X39283490Y46990852D01*
X39283490Y46990852D02*
X39303326Y46857086D01*
X39303326Y46857086D02*
X39288474Y46772859D01*
X39288474Y46772859D02*
X39224084Y46653945D01*
X39224084Y46653945D02*
X38926848Y46445818D01*
X38926848Y46445818D02*
X38793082Y46425982D01*
X38793082Y46425982D02*
X38708855Y46440833D01*
X38991034Y48041145D02*
X40066250Y47243636D01*
X40066250Y47243636D02*
X39684582Y48526773D01*
D11*
X34755666Y5074363D02*
X33908999Y6283887D01*
X33304237Y5074363D02*
X33304237Y7614363D01*
X33304237Y7614363D02*
X34271856Y7614363D01*
X34271856Y7614363D02*
X34513761Y7493411D01*
X34513761Y7493411D02*
X34634714Y7372458D01*
X34634714Y7372458D02*
X34755666Y7130554D01*
X34755666Y7130554D02*
X34755666Y6767696D01*
X34755666Y6767696D02*
X34634714Y6525792D01*
X34634714Y6525792D02*
X34513761Y6404839D01*
X34513761Y6404839D02*
X34271856Y6283887D01*
X34271856Y6283887D02*
X33304237Y6283887D01*
X35723285Y7372458D02*
X35844237Y7493411D01*
X35844237Y7493411D02*
X36086142Y7614363D01*
X36086142Y7614363D02*
X36690904Y7614363D01*
X36690904Y7614363D02*
X36932809Y7493411D01*
X36932809Y7493411D02*
X37053761Y7372458D01*
X37053761Y7372458D02*
X37174714Y7130554D01*
X37174714Y7130554D02*
X37174714Y6888649D01*
X37174714Y6888649D02*
X37053761Y6525792D01*
X37053761Y6525792D02*
X35602333Y5074363D01*
X35602333Y5074363D02*
X37174714Y5074363D01*
D10*
X25792697Y14722207D02*
X25344172Y13975737D01*
X25568435Y14348972D02*
X24262112Y15133890D01*
X24262112Y15133890D02*
X24373975Y14897347D01*
X24373975Y14897347D02*
X24423633Y14698181D01*
X24423633Y14698181D02*
X24411084Y14536393D01*
X24909802Y15930018D02*
X24884973Y16029601D01*
X24884973Y16029601D02*
X24897522Y16191390D01*
X24897522Y16191390D02*
X25084407Y16502419D01*
X25084407Y16502419D02*
X25221367Y16589454D01*
X25221367Y16589454D02*
X25320950Y16614283D01*
X25320950Y16614283D02*
X25482738Y16601734D01*
X25482738Y16601734D02*
X25607150Y16526980D01*
X25607150Y16526980D02*
X25756391Y16352643D01*
X25756391Y16352643D02*
X26054336Y15157648D01*
X26054336Y15157648D02*
X26540238Y15966325D01*
X25458178Y17124478D02*
X27026140Y16775001D01*
X27026140Y16775001D02*
X25981456Y17995360D01*
X26815040Y13945748D02*
X26678080Y13858713D01*
X26678080Y13858713D02*
X26565949Y13672096D01*
X26565949Y13672096D02*
X26516023Y13448101D01*
X26516023Y13448101D02*
X26565681Y13248935D01*
X26565681Y13248935D02*
X26652716Y13111975D01*
X26652716Y13111975D02*
X26864162Y12900261D01*
X26864162Y12900261D02*
X27050780Y12788130D01*
X27050780Y12788130D02*
X27336980Y12700828D01*
X27336980Y12700828D02*
X27498769Y12688280D01*
X27498769Y12688280D02*
X27697935Y12737937D01*
X27697935Y12737937D02*
X27872272Y12887178D01*
X27872272Y12887178D02*
X27947026Y13011590D01*
X27947026Y13011590D02*
X27996951Y13235584D01*
X27996951Y13235584D02*
X27972122Y13335167D01*
X27972122Y13335167D02*
X27536681Y13596806D01*
X27536681Y13596806D02*
X27387173Y13347983D01*
X28432927Y13820266D02*
X27126604Y14605184D01*
X27126604Y14605184D02*
X28881452Y14566736D01*
X28881452Y14566736D02*
X27575129Y15351654D01*
X29255222Y15188794D02*
X27948899Y15973712D01*
X27948899Y15973712D02*
X28135784Y16284741D01*
X28135784Y16284741D02*
X28310121Y16433982D01*
X28310121Y16433982D02*
X28509287Y16483640D01*
X28509287Y16483640D02*
X28671076Y16471091D01*
X28671076Y16471091D02*
X28957276Y16383789D01*
X28957276Y16383789D02*
X29143894Y16271658D01*
X29143894Y16271658D02*
X29355340Y16059944D01*
X29355340Y16059944D02*
X29442375Y15922984D01*
X29442375Y15922984D02*
X29492033Y15723818D01*
X29492033Y15723818D02*
X29442107Y15499823D01*
X29442107Y15499823D02*
X29255222Y15188794D01*
X49214887Y31236964D02*
X49069745Y31309535D01*
X49069745Y31309535D02*
X48852030Y31309535D01*
X48852030Y31309535D02*
X48634316Y31236964D01*
X48634316Y31236964D02*
X48489173Y31091821D01*
X48489173Y31091821D02*
X48416602Y30946678D01*
X48416602Y30946678D02*
X48344030Y30656392D01*
X48344030Y30656392D02*
X48344030Y30438678D01*
X48344030Y30438678D02*
X48416602Y30148392D01*
X48416602Y30148392D02*
X48489173Y30003249D01*
X48489173Y30003249D02*
X48634316Y29858107D01*
X48634316Y29858107D02*
X48852030Y29785535D01*
X48852030Y29785535D02*
X48997173Y29785535D01*
X48997173Y29785535D02*
X49214887Y29858107D01*
X49214887Y29858107D02*
X49287459Y29930678D01*
X49287459Y29930678D02*
X49287459Y30438678D01*
X49287459Y30438678D02*
X48997173Y30438678D01*
X49940602Y29785535D02*
X49940602Y31309535D01*
X49940602Y31309535D02*
X50811459Y29785535D01*
X50811459Y29785535D02*
X50811459Y31309535D01*
X51537173Y29785535D02*
X51537173Y31309535D01*
X51537173Y31309535D02*
X51900030Y31309535D01*
X51900030Y31309535D02*
X52117744Y31236964D01*
X52117744Y31236964D02*
X52262887Y31091821D01*
X52262887Y31091821D02*
X52335458Y30946678D01*
X52335458Y30946678D02*
X52408030Y30656392D01*
X52408030Y30656392D02*
X52408030Y30438678D01*
X52408030Y30438678D02*
X52335458Y30148392D01*
X52335458Y30148392D02*
X52262887Y30003249D01*
X52262887Y30003249D02*
X52117744Y29858107D01*
X52117744Y29858107D02*
X51900030Y29785535D01*
X51900030Y29785535D02*
X51537173Y29785535D01*
X47763458Y27245535D02*
X47763458Y28769535D01*
X47763458Y28769535D02*
X48126315Y28769535D01*
X48126315Y28769535D02*
X48344029Y28696964D01*
X48344029Y28696964D02*
X48489172Y28551821D01*
X48489172Y28551821D02*
X48561743Y28406678D01*
X48561743Y28406678D02*
X48634315Y28116392D01*
X48634315Y28116392D02*
X48634315Y27898678D01*
X48634315Y27898678D02*
X48561743Y27608392D01*
X48561743Y27608392D02*
X48489172Y27463249D01*
X48489172Y27463249D02*
X48344029Y27318107D01*
X48344029Y27318107D02*
X48126315Y27245535D01*
X48126315Y27245535D02*
X47763458Y27245535D01*
X49214886Y27680964D02*
X49940601Y27680964D01*
X49069743Y27245535D02*
X49577743Y28769535D01*
X49577743Y28769535D02*
X50085743Y27245535D01*
X50376029Y28769535D02*
X51246887Y28769535D01*
X50811458Y27245535D02*
X50811458Y28769535D01*
X51682315Y27680964D02*
X52408030Y27680964D01*
X51537172Y27245535D02*
X52045172Y28769535D01*
X52045172Y28769535D02*
X52553172Y27245535D01*
X51029172Y26229535D02*
X50303458Y26229535D01*
X50303458Y26229535D02*
X50230886Y25503821D01*
X50230886Y25503821D02*
X50303458Y25576392D01*
X50303458Y25576392D02*
X50448601Y25648964D01*
X50448601Y25648964D02*
X50811458Y25648964D01*
X50811458Y25648964D02*
X50956601Y25576392D01*
X50956601Y25576392D02*
X51029172Y25503821D01*
X51029172Y25503821D02*
X51101743Y25358678D01*
X51101743Y25358678D02*
X51101743Y24995821D01*
X51101743Y24995821D02*
X51029172Y24850678D01*
X51029172Y24850678D02*
X50956601Y24778107D01*
X50956601Y24778107D02*
X50811458Y24705535D01*
X50811458Y24705535D02*
X50448601Y24705535D01*
X50448601Y24705535D02*
X50303458Y24778107D01*
X50303458Y24778107D02*
X50230886Y24850678D01*
X51537172Y26229535D02*
X52045172Y24705535D01*
X52045172Y24705535D02*
X52553172Y26229535D01*
D12*
X17411878Y21133761D02*
X17941798Y21981810D01*
X17941798Y21981810D02*
X18143714Y21855638D01*
X18143714Y21855638D02*
X18239629Y21739552D01*
X18239629Y21739552D02*
X18269927Y21608317D01*
X18269927Y21608317D02*
X18259842Y21502317D01*
X18259842Y21502317D02*
X18199288Y21315549D01*
X18199288Y21315549D02*
X18123586Y21194400D01*
X18123586Y21194400D02*
X17982265Y21058101D01*
X17982265Y21058101D02*
X17891414Y21002569D01*
X17891414Y21002569D02*
X17760179Y20972271D01*
X17760179Y20972271D02*
X17613795Y21007590D01*
X17613795Y21007590D02*
X17411878Y21133761D01*
X18698994Y21396358D02*
X18764612Y21411507D01*
X18764612Y21411507D02*
X18870612Y21401422D01*
X18870612Y21401422D02*
X19072528Y21275251D01*
X19072528Y21275251D02*
X19128061Y21184399D01*
X19128061Y21184399D02*
X19143210Y21118781D01*
X19143210Y21118781D02*
X19133124Y21012781D01*
X19133124Y21012781D02*
X19082656Y20932014D01*
X19082656Y20932014D02*
X18966570Y20836099D01*
X18966570Y20836099D02*
X18179160Y20654311D01*
X18179160Y20654311D02*
X18704142Y20326265D01*
X19960960Y20720097D02*
X19799427Y20821034D01*
X19799427Y20821034D02*
X19693426Y20831119D01*
X19693426Y20831119D02*
X19627809Y20815970D01*
X19627809Y20815970D02*
X19471339Y20745289D01*
X19471339Y20745289D02*
X19330019Y20608990D01*
X19330019Y20608990D02*
X19128145Y20285924D01*
X19128145Y20285924D02*
X19118060Y20179924D01*
X19118060Y20179924D02*
X19133209Y20114306D01*
X19133209Y20114306D02*
X19188741Y20023454D01*
X19188741Y20023454D02*
X19350274Y19922517D01*
X19350274Y19922517D02*
X19456275Y19912432D01*
X19456275Y19912432D02*
X19521892Y19927581D01*
X19521892Y19927581D02*
X19612744Y19983113D01*
X19612744Y19983113D02*
X19738915Y20185030D01*
X19738915Y20185030D02*
X19749001Y20291030D01*
X19749001Y20291030D02*
X19733852Y20356648D01*
X19733852Y20356648D02*
X19678319Y20447500D01*
X19678319Y20447500D02*
X19516786Y20548437D01*
X19516786Y20548437D02*
X19410786Y20558522D01*
X19410786Y20558522D02*
X19345168Y20543373D01*
X19345168Y20543373D02*
X19254316Y20487841D01*
X46188333Y18341180D02*
X45712143Y18341180D01*
X45712143Y18341180D02*
X45712143Y19341180D01*
X47045476Y18341180D02*
X46474048Y18341180D01*
X46759762Y18341180D02*
X46759762Y19341180D01*
X46759762Y19341180D02*
X46664524Y19198323D01*
X46664524Y19198323D02*
X46569286Y19103085D01*
X46569286Y19103085D02*
X46474048Y19055466D01*
X45252819Y53935333D02*
X44776628Y53602000D01*
X45252819Y53363905D02*
X44252819Y53363905D01*
X44252819Y53363905D02*
X44252819Y53744857D01*
X44252819Y53744857D02*
X44300438Y53840095D01*
X44300438Y53840095D02*
X44348057Y53887714D01*
X44348057Y53887714D02*
X44443295Y53935333D01*
X44443295Y53935333D02*
X44586152Y53935333D01*
X44586152Y53935333D02*
X44681390Y53887714D01*
X44681390Y53887714D02*
X44729009Y53840095D01*
X44729009Y53840095D02*
X44776628Y53744857D01*
X44776628Y53744857D02*
X44776628Y53363905D01*
X44681390Y54506762D02*
X44633771Y54411524D01*
X44633771Y54411524D02*
X44586152Y54363905D01*
X44586152Y54363905D02*
X44490914Y54316286D01*
X44490914Y54316286D02*
X44443295Y54316286D01*
X44443295Y54316286D02*
X44348057Y54363905D01*
X44348057Y54363905D02*
X44300438Y54411524D01*
X44300438Y54411524D02*
X44252819Y54506762D01*
X44252819Y54506762D02*
X44252819Y54697238D01*
X44252819Y54697238D02*
X44300438Y54792476D01*
X44300438Y54792476D02*
X44348057Y54840095D01*
X44348057Y54840095D02*
X44443295Y54887714D01*
X44443295Y54887714D02*
X44490914Y54887714D01*
X44490914Y54887714D02*
X44586152Y54840095D01*
X44586152Y54840095D02*
X44633771Y54792476D01*
X44633771Y54792476D02*
X44681390Y54697238D01*
X44681390Y54697238D02*
X44681390Y54506762D01*
X44681390Y54506762D02*
X44729009Y54411524D01*
X44729009Y54411524D02*
X44776628Y54363905D01*
X44776628Y54363905D02*
X44871866Y54316286D01*
X44871866Y54316286D02*
X45062342Y54316286D01*
X45062342Y54316286D02*
X45157580Y54363905D01*
X45157580Y54363905D02*
X45205200Y54411524D01*
X45205200Y54411524D02*
X45252819Y54506762D01*
X45252819Y54506762D02*
X45252819Y54697238D01*
X45252819Y54697238D02*
X45205200Y54792476D01*
X45205200Y54792476D02*
X45157580Y54840095D01*
X45157580Y54840095D02*
X45062342Y54887714D01*
X45062342Y54887714D02*
X44871866Y54887714D01*
X44871866Y54887714D02*
X44776628Y54840095D01*
X44776628Y54840095D02*
X44729009Y54792476D01*
X44729009Y54792476D02*
X44681390Y54697238D01*
X55967333Y38534180D02*
X55634000Y39010371D01*
X55395905Y38534180D02*
X55395905Y39534180D01*
X55395905Y39534180D02*
X55776857Y39534180D01*
X55776857Y39534180D02*
X55872095Y39486561D01*
X55872095Y39486561D02*
X55919714Y39438942D01*
X55919714Y39438942D02*
X55967333Y39343704D01*
X55967333Y39343704D02*
X55967333Y39200847D01*
X55967333Y39200847D02*
X55919714Y39105609D01*
X55919714Y39105609D02*
X55872095Y39057990D01*
X55872095Y39057990D02*
X55776857Y39010371D01*
X55776857Y39010371D02*
X55395905Y39010371D01*
X56824476Y39534180D02*
X56634000Y39534180D01*
X56634000Y39534180D02*
X56538762Y39486561D01*
X56538762Y39486561D02*
X56491143Y39438942D01*
X56491143Y39438942D02*
X56395905Y39296085D01*
X56395905Y39296085D02*
X56348286Y39105609D01*
X56348286Y39105609D02*
X56348286Y38724657D01*
X56348286Y38724657D02*
X56395905Y38629419D01*
X56395905Y38629419D02*
X56443524Y38581800D01*
X56443524Y38581800D02*
X56538762Y38534180D01*
X56538762Y38534180D02*
X56729238Y38534180D01*
X56729238Y38534180D02*
X56824476Y38581800D01*
X56824476Y38581800D02*
X56872095Y38629419D01*
X56872095Y38629419D02*
X56919714Y38724657D01*
X56919714Y38724657D02*
X56919714Y38962752D01*
X56919714Y38962752D02*
X56872095Y39057990D01*
X56872095Y39057990D02*
X56824476Y39105609D01*
X56824476Y39105609D02*
X56729238Y39153228D01*
X56729238Y39153228D02*
X56538762Y39153228D01*
X56538762Y39153228D02*
X56443524Y39105609D01*
X56443524Y39105609D02*
X56395905Y39057990D01*
X56395905Y39057990D02*
X56348286Y38962752D01*
X44617819Y49617333D02*
X44141628Y49284000D01*
X44617819Y49045905D02*
X43617819Y49045905D01*
X43617819Y49045905D02*
X43617819Y49426857D01*
X43617819Y49426857D02*
X43665438Y49522095D01*
X43665438Y49522095D02*
X43713057Y49569714D01*
X43713057Y49569714D02*
X43808295Y49617333D01*
X43808295Y49617333D02*
X43951152Y49617333D01*
X43951152Y49617333D02*
X44046390Y49569714D01*
X44046390Y49569714D02*
X44094009Y49522095D01*
X44094009Y49522095D02*
X44141628Y49426857D01*
X44141628Y49426857D02*
X44141628Y49045905D01*
X43951152Y50474476D02*
X44617819Y50474476D01*
X43570200Y50236381D02*
X44284485Y49998286D01*
X44284485Y49998286D02*
X44284485Y50617333D01*
X49109333Y44343180D02*
X48776000Y44819371D01*
X48537905Y44343180D02*
X48537905Y45343180D01*
X48537905Y45343180D02*
X48918857Y45343180D01*
X48918857Y45343180D02*
X49014095Y45295561D01*
X49014095Y45295561D02*
X49061714Y45247942D01*
X49061714Y45247942D02*
X49109333Y45152704D01*
X49109333Y45152704D02*
X49109333Y45009847D01*
X49109333Y45009847D02*
X49061714Y44914609D01*
X49061714Y44914609D02*
X49014095Y44866990D01*
X49014095Y44866990D02*
X48918857Y44819371D01*
X48918857Y44819371D02*
X48537905Y44819371D01*
X49442667Y45343180D02*
X50061714Y45343180D01*
X50061714Y45343180D02*
X49728381Y44962228D01*
X49728381Y44962228D02*
X49871238Y44962228D01*
X49871238Y44962228D02*
X49966476Y44914609D01*
X49966476Y44914609D02*
X50014095Y44866990D01*
X50014095Y44866990D02*
X50061714Y44771752D01*
X50061714Y44771752D02*
X50061714Y44533657D01*
X50061714Y44533657D02*
X50014095Y44438419D01*
X50014095Y44438419D02*
X49966476Y44390800D01*
X49966476Y44390800D02*
X49871238Y44343180D01*
X49871238Y44343180D02*
X49585524Y44343180D01*
X49585524Y44343180D02*
X49490286Y44390800D01*
X49490286Y44390800D02*
X49442667Y44438419D01*
X27853819Y19010333D02*
X27377628Y18677000D01*
X27853819Y18438905D02*
X26853819Y18438905D01*
X26853819Y18438905D02*
X26853819Y18819857D01*
X26853819Y18819857D02*
X26901438Y18915095D01*
X26901438Y18915095D02*
X26949057Y18962714D01*
X26949057Y18962714D02*
X27044295Y19010333D01*
X27044295Y19010333D02*
X27187152Y19010333D01*
X27187152Y19010333D02*
X27282390Y18962714D01*
X27282390Y18962714D02*
X27330009Y18915095D01*
X27330009Y18915095D02*
X27377628Y18819857D01*
X27377628Y18819857D02*
X27377628Y18438905D01*
X27853819Y19962714D02*
X27853819Y19391286D01*
X27853819Y19677000D02*
X26853819Y19677000D01*
X26853819Y19677000D02*
X26996676Y19581762D01*
X26996676Y19581762D02*
X27091914Y19486524D01*
X27091914Y19486524D02*
X27139533Y19391286D01*
X45553333Y22975419D02*
X45505714Y22927800D01*
X45505714Y22927800D02*
X45362857Y22880180D01*
X45362857Y22880180D02*
X45267619Y22880180D01*
X45267619Y22880180D02*
X45124762Y22927800D01*
X45124762Y22927800D02*
X45029524Y23023038D01*
X45029524Y23023038D02*
X44981905Y23118276D01*
X44981905Y23118276D02*
X44934286Y23308752D01*
X44934286Y23308752D02*
X44934286Y23451609D01*
X44934286Y23451609D02*
X44981905Y23642085D01*
X44981905Y23642085D02*
X45029524Y23737323D01*
X45029524Y23737323D02*
X45124762Y23832561D01*
X45124762Y23832561D02*
X45267619Y23880180D01*
X45267619Y23880180D02*
X45362857Y23880180D01*
X45362857Y23880180D02*
X45505714Y23832561D01*
X45505714Y23832561D02*
X45553333Y23784942D01*
X46458095Y23880180D02*
X45981905Y23880180D01*
X45981905Y23880180D02*
X45934286Y23403990D01*
X45934286Y23403990D02*
X45981905Y23451609D01*
X45981905Y23451609D02*
X46077143Y23499228D01*
X46077143Y23499228D02*
X46315238Y23499228D01*
X46315238Y23499228D02*
X46410476Y23451609D01*
X46410476Y23451609D02*
X46458095Y23403990D01*
X46458095Y23403990D02*
X46505714Y23308752D01*
X46505714Y23308752D02*
X46505714Y23070657D01*
X46505714Y23070657D02*
X46458095Y22975419D01*
X46458095Y22975419D02*
X46410476Y22927800D01*
X46410476Y22927800D02*
X46315238Y22880180D01*
X46315238Y22880180D02*
X46077143Y22880180D01*
X46077143Y22880180D02*
X45981905Y22927800D01*
X45981905Y22927800D02*
X45934286Y22975419D01*
X53394333Y47204419D02*
X53346714Y47156800D01*
X53346714Y47156800D02*
X53203857Y47109180D01*
X53203857Y47109180D02*
X53108619Y47109180D01*
X53108619Y47109180D02*
X52965762Y47156800D01*
X52965762Y47156800D02*
X52870524Y47252038D01*
X52870524Y47252038D02*
X52822905Y47347276D01*
X52822905Y47347276D02*
X52775286Y47537752D01*
X52775286Y47537752D02*
X52775286Y47680609D01*
X52775286Y47680609D02*
X52822905Y47871085D01*
X52822905Y47871085D02*
X52870524Y47966323D01*
X52870524Y47966323D02*
X52965762Y48061561D01*
X52965762Y48061561D02*
X53108619Y48109180D01*
X53108619Y48109180D02*
X53203857Y48109180D01*
X53203857Y48109180D02*
X53346714Y48061561D01*
X53346714Y48061561D02*
X53394333Y48013942D01*
X54251476Y47775847D02*
X54251476Y47109180D01*
X54013381Y48156800D02*
X53775286Y47442514D01*
X53775286Y47442514D02*
X54394333Y47442514D01*
X50557580Y42035833D02*
X50605200Y41988214D01*
X50605200Y41988214D02*
X50652819Y41845357D01*
X50652819Y41845357D02*
X50652819Y41750119D01*
X50652819Y41750119D02*
X50605200Y41607262D01*
X50605200Y41607262D02*
X50509961Y41512024D01*
X50509961Y41512024D02*
X50414723Y41464405D01*
X50414723Y41464405D02*
X50224247Y41416786D01*
X50224247Y41416786D02*
X50081390Y41416786D01*
X50081390Y41416786D02*
X49890914Y41464405D01*
X49890914Y41464405D02*
X49795676Y41512024D01*
X49795676Y41512024D02*
X49700438Y41607262D01*
X49700438Y41607262D02*
X49652819Y41750119D01*
X49652819Y41750119D02*
X49652819Y41845357D01*
X49652819Y41845357D02*
X49700438Y41988214D01*
X49700438Y41988214D02*
X49748057Y42035833D01*
X49652819Y42369167D02*
X49652819Y42988214D01*
X49652819Y42988214D02*
X50033771Y42654881D01*
X50033771Y42654881D02*
X50033771Y42797738D01*
X50033771Y42797738D02*
X50081390Y42892976D01*
X50081390Y42892976D02*
X50129009Y42940595D01*
X50129009Y42940595D02*
X50224247Y42988214D01*
X50224247Y42988214D02*
X50462342Y42988214D01*
X50462342Y42988214D02*
X50557580Y42940595D01*
X50557580Y42940595D02*
X50605200Y42892976D01*
X50605200Y42892976D02*
X50652819Y42797738D01*
X50652819Y42797738D02*
X50652819Y42512024D01*
X50652819Y42512024D02*
X50605200Y42416786D01*
X50605200Y42416786D02*
X50557580Y42369167D01*
X38568333Y24024419D02*
X38520714Y23976800D01*
X38520714Y23976800D02*
X38377857Y23929180D01*
X38377857Y23929180D02*
X38282619Y23929180D01*
X38282619Y23929180D02*
X38139762Y23976800D01*
X38139762Y23976800D02*
X38044524Y24072038D01*
X38044524Y24072038D02*
X37996905Y24167276D01*
X37996905Y24167276D02*
X37949286Y24357752D01*
X37949286Y24357752D02*
X37949286Y24500609D01*
X37949286Y24500609D02*
X37996905Y24691085D01*
X37996905Y24691085D02*
X38044524Y24786323D01*
X38044524Y24786323D02*
X38139762Y24881561D01*
X38139762Y24881561D02*
X38282619Y24929180D01*
X38282619Y24929180D02*
X38377857Y24929180D01*
X38377857Y24929180D02*
X38520714Y24881561D01*
X38520714Y24881561D02*
X38568333Y24833942D01*
X39520714Y23929180D02*
X38949286Y23929180D01*
X39235000Y23929180D02*
X39235000Y24929180D01*
X39235000Y24929180D02*
X39139762Y24786323D01*
X39139762Y24786323D02*
X39044524Y24691085D01*
X39044524Y24691085D02*
X38949286Y24643466D01*
X30970057Y19542543D02*
X30922438Y19447305D01*
X30922438Y19447305D02*
X30827200Y19352067D01*
X30827200Y19352067D02*
X30684342Y19209210D01*
X30684342Y19209210D02*
X30636723Y19113972D01*
X30636723Y19113972D02*
X30636723Y19018734D01*
X30874819Y19066353D02*
X30827200Y18971115D01*
X30827200Y18971115D02*
X30731961Y18875877D01*
X30731961Y18875877D02*
X30541485Y18828258D01*
X30541485Y18828258D02*
X30208152Y18828258D01*
X30208152Y18828258D02*
X30017676Y18875877D01*
X30017676Y18875877D02*
X29922438Y18971115D01*
X29922438Y18971115D02*
X29874819Y19066353D01*
X29874819Y19066353D02*
X29874819Y19256829D01*
X29874819Y19256829D02*
X29922438Y19352067D01*
X29922438Y19352067D02*
X30017676Y19447305D01*
X30017676Y19447305D02*
X30208152Y19494924D01*
X30208152Y19494924D02*
X30541485Y19494924D01*
X30541485Y19494924D02*
X30731961Y19447305D01*
X30731961Y19447305D02*
X30827200Y19352067D01*
X30827200Y19352067D02*
X30874819Y19256829D01*
X30874819Y19256829D02*
X30874819Y19066353D01*
X30874819Y20447305D02*
X30874819Y19875877D01*
X30874819Y20161591D02*
X29874819Y20161591D01*
X29874819Y20161591D02*
X30017676Y20066353D01*
X30017676Y20066353D02*
X30112914Y19971115D01*
X30112914Y19971115D02*
X30160533Y19875877D01*
X52482761Y49233942D02*
X52387523Y49281561D01*
X52387523Y49281561D02*
X52292285Y49376800D01*
X52292285Y49376800D02*
X52149428Y49519657D01*
X52149428Y49519657D02*
X52054190Y49567276D01*
X52054190Y49567276D02*
X51958952Y49567276D01*
X52006571Y49329180D02*
X51911333Y49376800D01*
X51911333Y49376800D02*
X51816095Y49472038D01*
X51816095Y49472038D02*
X51768476Y49662514D01*
X51768476Y49662514D02*
X51768476Y49995847D01*
X51768476Y49995847D02*
X51816095Y50186323D01*
X51816095Y50186323D02*
X51911333Y50281561D01*
X51911333Y50281561D02*
X52006571Y50329180D01*
X52006571Y50329180D02*
X52197047Y50329180D01*
X52197047Y50329180D02*
X52292285Y50281561D01*
X52292285Y50281561D02*
X52387523Y50186323D01*
X52387523Y50186323D02*
X52435142Y49995847D01*
X52435142Y49995847D02*
X52435142Y49662514D01*
X52435142Y49662514D02*
X52387523Y49472038D01*
X52387523Y49472038D02*
X52292285Y49376800D01*
X52292285Y49376800D02*
X52197047Y49329180D01*
X52197047Y49329180D02*
X52006571Y49329180D01*
X52768476Y50329180D02*
X53387523Y50329180D01*
X53387523Y50329180D02*
X53054190Y49948228D01*
X53054190Y49948228D02*
X53197047Y49948228D01*
X53197047Y49948228D02*
X53292285Y49900609D01*
X53292285Y49900609D02*
X53339904Y49852990D01*
X53339904Y49852990D02*
X53387523Y49757752D01*
X53387523Y49757752D02*
X53387523Y49519657D01*
X53387523Y49519657D02*
X53339904Y49424419D01*
X53339904Y49424419D02*
X53292285Y49376800D01*
X53292285Y49376800D02*
X53197047Y49329180D01*
X53197047Y49329180D02*
X52911333Y49329180D01*
X52911333Y49329180D02*
X52816095Y49376800D01*
X52816095Y49376800D02*
X52768476Y49424419D01*
X55753095Y42582180D02*
X55753095Y41772657D01*
X55753095Y41772657D02*
X55800714Y41677419D01*
X55800714Y41677419D02*
X55848333Y41629800D01*
X55848333Y41629800D02*
X55943571Y41582180D01*
X55943571Y41582180D02*
X56134047Y41582180D01*
X56134047Y41582180D02*
X56229285Y41629800D01*
X56229285Y41629800D02*
X56276904Y41677419D01*
X56276904Y41677419D02*
X56324523Y41772657D01*
X56324523Y41772657D02*
X56324523Y42582180D01*
X56705476Y42582180D02*
X57324523Y42582180D01*
X57324523Y42582180D02*
X56991190Y42201228D01*
X56991190Y42201228D02*
X57134047Y42201228D01*
X57134047Y42201228D02*
X57229285Y42153609D01*
X57229285Y42153609D02*
X57276904Y42105990D01*
X57276904Y42105990D02*
X57324523Y42010752D01*
X57324523Y42010752D02*
X57324523Y41772657D01*
X57324523Y41772657D02*
X57276904Y41677419D01*
X57276904Y41677419D02*
X57229285Y41629800D01*
X57229285Y41629800D02*
X57134047Y41582180D01*
X57134047Y41582180D02*
X56848333Y41582180D01*
X56848333Y41582180D02*
X56753095Y41629800D01*
X56753095Y41629800D02*
X56705476Y41677419D01*
X47966333Y25961180D02*
X47633000Y26437371D01*
X47394905Y25961180D02*
X47394905Y26961180D01*
X47394905Y26961180D02*
X47775857Y26961180D01*
X47775857Y26961180D02*
X47871095Y26913561D01*
X47871095Y26913561D02*
X47918714Y26865942D01*
X47918714Y26865942D02*
X47966333Y26770704D01*
X47966333Y26770704D02*
X47966333Y26627847D01*
X47966333Y26627847D02*
X47918714Y26532609D01*
X47918714Y26532609D02*
X47871095Y26484990D01*
X47871095Y26484990D02*
X47775857Y26437371D01*
X47775857Y26437371D02*
X47394905Y26437371D01*
X48347286Y26865942D02*
X48394905Y26913561D01*
X48394905Y26913561D02*
X48490143Y26961180D01*
X48490143Y26961180D02*
X48728238Y26961180D01*
X48728238Y26961180D02*
X48823476Y26913561D01*
X48823476Y26913561D02*
X48871095Y26865942D01*
X48871095Y26865942D02*
X48918714Y26770704D01*
X48918714Y26770704D02*
X48918714Y26675466D01*
X48918714Y26675466D02*
X48871095Y26532609D01*
X48871095Y26532609D02*
X48299667Y25961180D01*
X48299667Y25961180D02*
X48918714Y25961180D01*
X-47755802Y-4256046D02*
X-47755802Y-3256046D01*
X-47755802Y-3732236D02*
X-47184374Y-3732236D01*
X-47184374Y-4256046D02*
X-47184374Y-3256046D01*
X-46279612Y-3589379D02*
X-46279612Y-4256046D01*
X-46517707Y-3208427D02*
X-46755802Y-3922712D01*
X-46755802Y-3922712D02*
X-46136755Y-3922712D01*
X21035918Y13408781D02*
X21648180Y13040897D01*
X21648180Y13040897D02*
X21746107Y12926502D01*
X21746107Y12926502D02*
X21778691Y12795816D01*
X21778691Y12795816D02*
X21745931Y12648838D01*
X21745931Y12648838D02*
X21696880Y12567203D01*
X22408123Y13750910D02*
X22113816Y13261100D01*
X22260970Y13506005D02*
X21403802Y14021043D01*
X21403802Y14021043D02*
X21477203Y13865832D01*
X21477203Y13865832D02*
X21509787Y13735145D01*
X21509787Y13735145D02*
X21501553Y13628985D01*
D13*
X12693743Y42065659D02*
X13023120Y41558463D01*
X12384174Y41431964D02*
X13023120Y41558463D01*
X13023120Y41558463D02*
X13398566Y42090718D01*
X12982304Y40955080D02*
X13023120Y41558463D01*
X13023120Y41558463D02*
X13590940Y41350332D01*
D12*
X45553333Y29042180D02*
X45220000Y29518371D01*
X44981905Y29042180D02*
X44981905Y30042180D01*
X44981905Y30042180D02*
X45362857Y30042180D01*
X45362857Y30042180D02*
X45458095Y29994561D01*
X45458095Y29994561D02*
X45505714Y29946942D01*
X45505714Y29946942D02*
X45553333Y29851704D01*
X45553333Y29851704D02*
X45553333Y29708847D01*
X45553333Y29708847D02*
X45505714Y29613609D01*
X45505714Y29613609D02*
X45458095Y29565990D01*
X45458095Y29565990D02*
X45362857Y29518371D01*
X45362857Y29518371D02*
X44981905Y29518371D01*
X46458095Y30042180D02*
X45981905Y30042180D01*
X45981905Y30042180D02*
X45934286Y29565990D01*
X45934286Y29565990D02*
X45981905Y29613609D01*
X45981905Y29613609D02*
X46077143Y29661228D01*
X46077143Y29661228D02*
X46315238Y29661228D01*
X46315238Y29661228D02*
X46410476Y29613609D01*
X46410476Y29613609D02*
X46458095Y29565990D01*
X46458095Y29565990D02*
X46505714Y29470752D01*
X46505714Y29470752D02*
X46505714Y29232657D01*
X46505714Y29232657D02*
X46458095Y29137419D01*
X46458095Y29137419D02*
X46410476Y29089800D01*
X46410476Y29089800D02*
X46315238Y29042180D01*
X46315238Y29042180D02*
X46077143Y29042180D01*
X46077143Y29042180D02*
X45981905Y29089800D01*
X45981905Y29089800D02*
X45934286Y29137419D01*
X40767095Y30390180D02*
X40767095Y29580657D01*
X40767095Y29580657D02*
X40814714Y29485419D01*
X40814714Y29485419D02*
X40862333Y29437800D01*
X40862333Y29437800D02*
X40957571Y29390180D01*
X40957571Y29390180D02*
X41148047Y29390180D01*
X41148047Y29390180D02*
X41243285Y29437800D01*
X41243285Y29437800D02*
X41290904Y29485419D01*
X41290904Y29485419D02*
X41338523Y29580657D01*
X41338523Y29580657D02*
X41338523Y30390180D01*
X42338523Y29390180D02*
X41767095Y29390180D01*
X42052809Y29390180D02*
X42052809Y30390180D01*
X42052809Y30390180D02*
X41957571Y30247323D01*
X41957571Y30247323D02*
X41862333Y30152085D01*
X41862333Y30152085D02*
X41767095Y30104466D01*
X37062580Y26884333D02*
X37110200Y26836714D01*
X37110200Y26836714D02*
X37157819Y26693857D01*
X37157819Y26693857D02*
X37157819Y26598619D01*
X37157819Y26598619D02*
X37110200Y26455762D01*
X37110200Y26455762D02*
X37014961Y26360524D01*
X37014961Y26360524D02*
X36919723Y26312905D01*
X36919723Y26312905D02*
X36729247Y26265286D01*
X36729247Y26265286D02*
X36586390Y26265286D01*
X36586390Y26265286D02*
X36395914Y26312905D01*
X36395914Y26312905D02*
X36300676Y26360524D01*
X36300676Y26360524D02*
X36205438Y26455762D01*
X36205438Y26455762D02*
X36157819Y26598619D01*
X36157819Y26598619D02*
X36157819Y26693857D01*
X36157819Y26693857D02*
X36205438Y26836714D01*
X36205438Y26836714D02*
X36253057Y26884333D01*
X36253057Y27265286D02*
X36205438Y27312905D01*
X36205438Y27312905D02*
X36157819Y27408143D01*
X36157819Y27408143D02*
X36157819Y27646238D01*
X36157819Y27646238D02*
X36205438Y27741476D01*
X36205438Y27741476D02*
X36253057Y27789095D01*
X36253057Y27789095D02*
X36348295Y27836714D01*
X36348295Y27836714D02*
X36443533Y27836714D01*
X36443533Y27836714D02*
X36586390Y27789095D01*
X36586390Y27789095D02*
X37157819Y27217667D01*
X37157819Y27217667D02*
X37157819Y27836714D01*
X52482761Y53551942D02*
X52387523Y53599561D01*
X52387523Y53599561D02*
X52292285Y53694800D01*
X52292285Y53694800D02*
X52149428Y53837657D01*
X52149428Y53837657D02*
X52054190Y53885276D01*
X52054190Y53885276D02*
X51958952Y53885276D01*
X52006571Y53647180D02*
X51911333Y53694800D01*
X51911333Y53694800D02*
X51816095Y53790038D01*
X51816095Y53790038D02*
X51768476Y53980514D01*
X51768476Y53980514D02*
X51768476Y54313847D01*
X51768476Y54313847D02*
X51816095Y54504323D01*
X51816095Y54504323D02*
X51911333Y54599561D01*
X51911333Y54599561D02*
X52006571Y54647180D01*
X52006571Y54647180D02*
X52197047Y54647180D01*
X52197047Y54647180D02*
X52292285Y54599561D01*
X52292285Y54599561D02*
X52387523Y54504323D01*
X52387523Y54504323D02*
X52435142Y54313847D01*
X52435142Y54313847D02*
X52435142Y53980514D01*
X52435142Y53980514D02*
X52387523Y53790038D01*
X52387523Y53790038D02*
X52292285Y53694800D01*
X52292285Y53694800D02*
X52197047Y53647180D01*
X52197047Y53647180D02*
X52006571Y53647180D01*
X53339904Y54647180D02*
X52863714Y54647180D01*
X52863714Y54647180D02*
X52816095Y54170990D01*
X52816095Y54170990D02*
X52863714Y54218609D01*
X52863714Y54218609D02*
X52958952Y54266228D01*
X52958952Y54266228D02*
X53197047Y54266228D01*
X53197047Y54266228D02*
X53292285Y54218609D01*
X53292285Y54218609D02*
X53339904Y54170990D01*
X53339904Y54170990D02*
X53387523Y54075752D01*
X53387523Y54075752D02*
X53387523Y53837657D01*
X53387523Y53837657D02*
X53339904Y53742419D01*
X53339904Y53742419D02*
X53292285Y53694800D01*
X53292285Y53694800D02*
X53197047Y53647180D01*
X53197047Y53647180D02*
X52958952Y53647180D01*
X52958952Y53647180D02*
X52863714Y53694800D01*
X52863714Y53694800D02*
X52816095Y53742419D01*
D14*
%TO.C,D26*%
X14068321Y22757060D02*
X21285211Y18247447D01*
X10623846Y17244747D02*
X14068321Y22757060D01*
X10623846Y17244747D02*
X17840736Y12735134D01*
%TO.C,L1*%
X42767000Y14696000D02*
X38767000Y14696000D01*
X42767000Y22896000D02*
X38767000Y22896000D01*
%TO.C,R8*%
X45705500Y53847276D02*
X45705500Y54356724D01*
X46750500Y53847276D02*
X46750500Y54356724D01*
%TO.C,R6*%
X53721724Y38466500D02*
X53212276Y38466500D01*
X53721724Y39511500D02*
X53212276Y39511500D01*
%TO.C,R4*%
X45070500Y49529276D02*
X45070500Y50038724D01*
X46115500Y49529276D02*
X46115500Y50038724D01*
%TO.C,R3*%
X49530724Y45705500D02*
X49021276Y45705500D01*
X49530724Y46750500D02*
X49021276Y46750500D01*
%TO.C,R1*%
X28306500Y18922276D02*
X28306500Y19431724D01*
X29351500Y18922276D02*
X29351500Y19431724D01*
%TO.C,C5*%
X45866267Y24255000D02*
X45573733Y24255000D01*
X45866267Y25275000D02*
X45573733Y25275000D01*
%TO.C,C4*%
X53613267Y45718000D02*
X53320733Y45718000D01*
X53613267Y46738000D02*
X53320733Y46738000D01*
%TO.C,C3*%
X49278000Y42348767D02*
X49278000Y42056233D01*
X48258000Y42348767D02*
X48258000Y42056233D01*
%TO.C,C1*%
X41128733Y24894000D02*
X41421267Y24894000D01*
X41128733Y23874000D02*
X41421267Y23874000D01*
%TO.C,Q1*%
X33710000Y20582782D02*
X34600000Y20582782D01*
X34600000Y20582782D02*
X34600000Y18732782D01*
X31480000Y20597782D02*
X31480000Y18747782D01*
X31480000Y20597782D02*
X32370000Y20597782D01*
X31470000Y18357782D02*
X31140000Y18117782D01*
X31140000Y18597782D01*
X31470000Y18357782D01*
G36*
X31470000Y18357782D02*
G01*
X31140000Y18117782D01*
X31140000Y18597782D01*
X31470000Y18357782D01*
G37*
%TO.C,Q3*%
X50221000Y49094000D02*
X50221000Y48204000D01*
X50221000Y48204000D02*
X48371000Y48204000D01*
X50236000Y51324000D02*
X48386000Y51324000D01*
X50236000Y51324000D02*
X50236000Y50434000D01*
X47996000Y51334000D02*
X47756000Y51664000D01*
X48236000Y51664000D01*
X47996000Y51334000D01*
G36*
X47996000Y51334000D02*
G01*
X47756000Y51664000D01*
X48236000Y51664000D01*
X47996000Y51334000D01*
G37*
D15*
%TO.C,TP11*%
X14152191Y33528060D02*
G75*
G02*
X12882191Y33528060I-635000J0D01*
G01*
X12882191Y33528060D02*
G75*
G02*
X14152191Y33528060I635000J0D01*
G01*
%TO.C,TP10*%
X15535577Y31397847D02*
G75*
G02*
X14265577Y31397847I-635000J0D01*
G01*
X14265577Y31397847D02*
G75*
G02*
X15535577Y31397847I635000J0D01*
G01*
%TO.C,TP9*%
X45720000Y38735000D02*
G75*
G02*
X44450000Y38735000I-635000J0D01*
G01*
X44450000Y38735000D02*
G75*
G02*
X45720000Y38735000I635000J0D01*
G01*
%TO.C,TP8*%
X44346202Y40850464D02*
G75*
G02*
X43076202Y40850464I-635000J0D01*
G01*
X43076202Y40850464D02*
G75*
G02*
X44346202Y40850464I635000J0D01*
G01*
%TO.C,TP7*%
X42972405Y42965925D02*
G75*
G02*
X41702405Y42965925I-635000J0D01*
G01*
X41702405Y42965925D02*
G75*
G02*
X42972405Y42965925I635000J0D01*
G01*
%TO.C,TP6*%
X41450685Y45309172D02*
G75*
G02*
X40180685Y45309172I-635000J0D01*
G01*
X40180685Y45309172D02*
G75*
G02*
X41450685Y45309172I635000J0D01*
G01*
%TO.C,TP5*%
X21069109Y22876942D02*
G75*
G02*
X19799109Y22876942I-635000J0D01*
G01*
X19799109Y22876942D02*
G75*
G02*
X21069109Y22876942I635000J0D01*
G01*
%TO.C,TP4*%
X19685720Y25007164D02*
G75*
G02*
X18415720Y25007164I-635000J0D01*
G01*
X18415720Y25007164D02*
G75*
G02*
X19685720Y25007164I635000J0D01*
G01*
%TO.C,TP3*%
X18302336Y27137396D02*
G75*
G02*
X17032336Y27137396I-635000J0D01*
G01*
X17032336Y27137396D02*
G75*
G02*
X18302336Y27137396I635000J0D01*
G01*
%TO.C,TP2*%
X16918958Y29267615D02*
G75*
G02*
X15648958Y29267615I-635000J0D01*
G01*
X15648958Y29267615D02*
G75*
G02*
X16918958Y29267615I635000J0D01*
G01*
%TO.C,TP1*%
X12768810Y35658282D02*
G75*
G02*
X11498810Y35658282I-635000J0D01*
G01*
X11498810Y35658282D02*
G75*
G02*
X12768810Y35658282I635000J0D01*
G01*
D14*
%TO.C,U3*%
X53467000Y43724000D02*
X52667000Y43724000D01*
X53467000Y43724000D02*
X54267000Y43724000D01*
X53467000Y40604000D02*
X52667000Y40604000D01*
X53467000Y40604000D02*
X54267000Y40604000D01*
X52167000Y43674000D02*
X51927000Y44004000D01*
X52407000Y44004000D01*
X52167000Y43674000D01*
G36*
X52167000Y43674000D02*
G01*
X51927000Y44004000D01*
X52407000Y44004000D01*
X52167000Y43674000D01*
G37*
D16*
%TO.C,FID1*%
G36*
X46538675Y9154428D02*
G01*
X46528182Y8716818D01*
X46090572Y8706325D01*
X45652962Y8695832D01*
X45652962Y9143935D01*
X45652962Y9592038D01*
X46101065Y9592038D01*
X46549168Y9592038D01*
X46538675Y9154428D01*
G37*
G36*
X53474077Y2646143D02*
G01*
X53474077Y1770923D01*
X52598857Y1770923D01*
X51723637Y1770923D01*
X51723637Y2646143D01*
X51723637Y3521363D01*
X52598857Y3521363D01*
X53474077Y3521363D01*
X53474077Y2646143D01*
G37*
G36*
X55187273Y6985000D02*
G01*
X55187273Y57727D01*
X48260000Y57727D01*
X41332728Y57727D01*
X41332728Y914325D01*
X42189326Y914325D01*
X48260000Y914325D01*
X54330675Y914325D01*
X54330675Y6985000D01*
X54330675Y13055674D01*
X48260000Y13055674D01*
X42189326Y13055674D01*
X42189326Y6985000D01*
X42189326Y914325D01*
X41332728Y914325D01*
X41332728Y6985000D01*
X41332728Y13912272D01*
X48260000Y13912272D01*
X55187273Y13912272D01*
X55187273Y6985000D01*
G37*
G36*
X50010440Y6128401D02*
G01*
X50010440Y5271803D01*
X50867038Y5271803D01*
X51723637Y5271803D01*
X51723637Y4396583D01*
X51723637Y3521363D01*
X50848417Y3521363D01*
X49973197Y3521363D01*
X49973197Y4377962D01*
X49973197Y5234560D01*
X48260000Y5234560D01*
X46546804Y5234560D01*
X46546804Y4377962D01*
X46546804Y3521363D01*
X45671584Y3521363D01*
X44796364Y3521363D01*
X44796364Y2646143D01*
X44796364Y1770923D01*
X43921144Y1770923D01*
X43045924Y1770923D01*
X43045924Y2646143D01*
X43045924Y3521363D01*
X43921144Y3521363D01*
X44796364Y3521363D01*
X44796364Y4396583D01*
X44796364Y5271803D01*
X45652962Y5271803D01*
X46509560Y5271803D01*
X46509560Y6128401D01*
X46509560Y6985000D01*
X48260000Y6985000D01*
X50010440Y6985000D01*
X50010440Y6128401D01*
G37*
G36*
X46090572Y12190947D02*
G01*
X46528182Y12180454D01*
X46528182Y11752155D01*
X46528182Y11323856D01*
X46090572Y11313363D01*
X45652962Y11302870D01*
X45652962Y10447454D01*
X45652962Y9592038D01*
X44797546Y9592038D01*
X43942130Y9592038D01*
X43931637Y9154428D01*
X43921144Y8716818D01*
X43509514Y8706356D01*
X43341224Y8704356D01*
X43201211Y8706971D01*
X43105742Y8713622D01*
X43071904Y8721874D01*
X43061541Y8767473D01*
X43053142Y8871504D01*
X43047636Y9017916D01*
X43045924Y9169946D01*
X43045924Y9592038D01*
X43474223Y9592038D01*
X43902522Y9592038D01*
X43902522Y10448636D01*
X43902522Y11305234D01*
X43474223Y11305234D01*
X43045924Y11305234D01*
X43045924Y11752155D01*
X43045924Y12199076D01*
X43492845Y12199076D01*
X43939766Y12199076D01*
X43939766Y11770777D01*
X43939766Y11342478D01*
X44796364Y11342478D01*
X45652962Y11342478D01*
X45652962Y11771959D01*
X45652962Y12201440D01*
X46090572Y12190947D01*
G37*
G36*
X50867038Y11771959D02*
G01*
X50867038Y11342478D01*
X51723637Y11342478D01*
X52580235Y11342478D01*
X52580235Y11770777D01*
X52580235Y12199076D01*
X53027156Y12199076D01*
X53474077Y12199076D01*
X53474077Y11752155D01*
X53474077Y11305234D01*
X53045777Y11305234D01*
X52617478Y11305234D01*
X52617478Y10448636D01*
X52617478Y9592038D01*
X53046959Y9592038D01*
X53476440Y9592038D01*
X53465948Y9154428D01*
X53455455Y8716818D01*
X53027156Y8716818D01*
X52598857Y8716818D01*
X52588364Y9154428D01*
X52577871Y9592038D01*
X51722455Y9592038D01*
X50867038Y9592038D01*
X50867038Y9145117D01*
X50867038Y8698196D01*
X50444947Y8698196D01*
X50274559Y8700268D01*
X50132495Y8705890D01*
X50034749Y8714174D01*
X49998026Y8723025D01*
X49988125Y8768142D01*
X49980099Y8871746D01*
X49974836Y9017845D01*
X49973197Y9169946D01*
X49973197Y9592038D01*
X50420118Y9592038D01*
X50867038Y9592038D01*
X50867038Y10447454D01*
X50867038Y11302870D01*
X50429429Y11313363D01*
X49991819Y11323856D01*
X49991819Y11752155D01*
X49991819Y12180454D01*
X50429429Y12190947D01*
X50867038Y12201440D01*
X50867038Y11771959D01*
G37*
D14*
%TO.C,R2*%
X45974724Y25893500D02*
X45465276Y25893500D01*
X45974724Y26938500D02*
X45465276Y26938500D01*
%TO.C,J1*%
X21847079Y11758645D02*
X22532079Y12898678D01*
X22987111Y11073644D02*
X21847079Y11758645D01*
X24075714Y10419546D02*
X25445715Y12699611D01*
X24075714Y10419546D02*
X26304349Y9080447D01*
X25445715Y12699611D02*
X27674350Y11360512D01*
X26304349Y9080447D02*
X27674350Y11360512D01*
%TO.C,J4*%
X52761998Y33350000D02*
X52761998Y30850000D01*
X53061998Y33050000D02*
X53061998Y22830000D01*
X53061998Y22830000D02*
X57081998Y22830000D01*
X54561998Y33050000D02*
X54561998Y32050000D01*
X54561998Y32050000D02*
X53061998Y32050000D01*
X54561998Y23830000D02*
X53061998Y23830000D01*
X54561998Y22830000D02*
X54561998Y23830000D01*
X55261998Y33350000D02*
X52761998Y33350000D01*
X55371998Y33050000D02*
X55371998Y32550000D01*
X55371998Y32550000D02*
X56581998Y32550000D01*
X55371998Y23330000D02*
X55371998Y22830000D01*
X56581998Y32550000D02*
X56581998Y23330000D01*
X56581998Y23330000D02*
X55371998Y23330000D01*
X57081998Y33050000D02*
X53061998Y33050000D01*
X57081998Y22830000D02*
X57081998Y33050000D01*
D15*
%TO.C,U2*%
X15361078Y40385113D02*
X15822224Y39675010D01*
X15558555Y41314027D02*
X15361078Y40385113D01*
X17909938Y44538959D02*
X25453780Y49437987D01*
X21910769Y38370874D02*
X17906038Y44537620D01*
X25453780Y49437987D02*
X29457966Y43272081D01*
X25630411Y24571727D02*
X26432773Y23336198D01*
X26432773Y23336198D02*
X41361109Y33030773D01*
X29457966Y43272081D02*
X21910769Y38370874D01*
X29923689Y50642855D02*
X15558555Y41314027D01*
X30639890Y49540003D02*
X29923689Y50642855D01*
X41361109Y33030773D02*
X40669418Y34095884D01*
D14*
%TO.C,R5*%
X45465276Y28589500D02*
X45974724Y28589500D01*
X45465276Y27544500D02*
X45974724Y27544500D01*
%TO.C,U1*%
X40223500Y28942000D02*
X39983500Y29272000D01*
X40463500Y29272000D01*
X40223500Y28942000D01*
G36*
X40223500Y28942000D02*
G01*
X39983500Y29272000D01*
X40463500Y29272000D01*
X40223500Y28942000D01*
G37*
X41523500Y25872000D02*
X42323500Y25872000D01*
X41523500Y25872000D02*
X40723500Y25872000D01*
X41523500Y28992000D02*
X42323500Y28992000D01*
X41523500Y28992000D02*
X40723500Y28992000D01*
%TO.C,C2*%
X38737000Y27412733D02*
X38737000Y27705267D01*
X37717000Y27412733D02*
X37717000Y27705267D01*
%TO.C,Q5*%
X49276000Y55662000D02*
X48626000Y55662000D01*
X49276000Y55662000D02*
X49926000Y55662000D01*
X49276000Y52542000D02*
X48626000Y52542000D01*
X49276000Y52542000D02*
X49926000Y52542000D01*
X48113500Y55612000D02*
X47873500Y55942000D01*
X48353500Y55942000D01*
X48113500Y55612000D01*
G36*
X48113500Y55612000D02*
G01*
X47873500Y55942000D01*
X48353500Y55942000D01*
X48113500Y55612000D01*
G37*
%TD*%
M02*
