M48
; DRILL file {KiCad 8.0.5} date 2025-03-21T14:04:31-0400
; FORMAT={-:-/ absolute / inch / decimal}
; #@! TF.CreationDate,2025-03-21T14:04:31-04:00
; #@! TF.GenerationSoftware,Kicad,Pcbnew,8.0.5
; #@! TF.FileFunction,Plated,1,2,PTH
FMAT,2
INCH
; #@! TA.AperFunction,Plated,PTH,ViaDrill
T1C0.0080
; #@! TA.AperFunction,Plated,PTH,ComponentDrill
T2C0.0210
; #@! TA.AperFunction,Plated,PTH,ComponentDrill
T3C0.0374
; #@! TA.AperFunction,Plated,PTH,ComponentDrill
T4C0.0394
; #@! TA.AperFunction,Plated,PTH,ComponentDrill
T5C0.1160
%
G90
G05
T1
X0.4719Y0.7932
X1.06Y1.38
X1.13Y1.91
X1.135Y0.83
X1.19Y1.75
X1.55Y1.145
X1.694Y0.975
X1.775Y1.685
X1.86Y1.34
X1.875Y1.105
X1.9Y2.06
X1.92Y1.735
X1.96Y1.4
X1.98Y1.6
X2.0026Y1.6574
X2.035Y1.82
T2
X0.4777Y1.4039
X0.5322Y1.32
X0.5866Y1.2361
X0.6411Y1.1523
X0.6956Y1.0684
X0.75Y0.9845
X0.8045Y0.9007
X1.6069Y1.7838
X1.6668Y1.6916
X1.7209Y1.6083
X1.775Y1.525
T3
X2.18Y1.1984
X2.18Y1.1
X2.18Y1.0016
T4
X0.932Y0.4809
X1.0177Y0.4293
T5
X-2.0252Y-0.1497
X-2.0244Y2.3515
X2.1248Y2.3503
X2.1249Y-0.15
M30
