%TF.GenerationSoftware,KiCad,Pcbnew,8.0.5*%
%TF.CreationDate,2025-03-21T14:04:30-04:00*%
%TF.ProjectId,rv_light,72765f6c-6967-4687-942e-6b696361645f,rev?*%
%TF.SameCoordinates,Original*%
%TF.FileFunction,Copper,L2,Bot*%
%TF.FilePolarity,Positive*%
%FSLAX46Y46*%
G04 Gerber Fmt 4.6, Leading zero omitted, Abs format (unit mm)*
G04 Created by KiCad (PCBNEW 8.0.5) date 2025-03-21 14:04:30*
%MOMM*%
%LPD*%
G01*
G04 APERTURE LIST*
G04 Aperture macros list*
%AMRoundRect*
0 Rectangle with rounded corners*
0 $1 Rounding radius*
0 $2 $3 $4 $5 $6 $7 $8 $9 X,Y pos of 4 corners*
0 Add a 4 corners polygon primitive as box body*
4,1,4,$2,$3,$4,$5,$6,$7,$8,$9,$2,$3,0*
0 Add four circle primitives for the rounded corners*
1,1,$1+$1,$2,$3*
1,1,$1+$1,$4,$5*
1,1,$1+$1,$6,$7*
1,1,$1+$1,$8,$9*
0 Add four rect primitives between the rounded corners*
20,1,$1+$1,$2,$3,$4,$5,0*
20,1,$1+$1,$4,$5,$6,$7,0*
20,1,$1+$1,$6,$7,$8,$9,0*
20,1,$1+$1,$8,$9,$2,$3,0*%
%AMHorizOval*
0 Thick line with rounded ends*
0 $1 width*
0 $2 $3 position (X,Y) of the first rounded end (center of the circle)*
0 $4 $5 position (X,Y) of the second rounded end (center of the circle)*
0 Add line between two ends*
20,1,$1,$2,$3,$4,$5,0*
0 Add two circle primitives to create the rounded ends*
1,1,$1,$2,$3*
1,1,$1,$4,$5*%
%AMRotRect*
0 Rectangle, with rotation*
0 The origin of the aperture is its center*
0 $1 length*
0 $2 width*
0 $3 Rotation angle, in degrees counterclockwise*
0 Add horizontal line*
21,1,$1,$2,0,0,$3*%
G04 Aperture macros list end*
%TA.AperFunction,ComponentPad*%
%ADD10C,0.939800*%
%TD*%
%TA.AperFunction,ComponentPad*%
%ADD11C,5.715000*%
%TD*%
%TA.AperFunction,WasherPad*%
%ADD12C,5.715000*%
%TD*%
%TA.AperFunction,ComponentPad*%
%ADD13RotRect,1.700000X1.700000X59.000000*%
%TD*%
%TA.AperFunction,ComponentPad*%
%ADD14HorizOval,1.700000X0.000000X0.000000X0.000000X0.000000X0*%
%TD*%
%TA.AperFunction,ComponentPad*%
%ADD15RoundRect,0.250000X-0.725000X0.600000X-0.725000X-0.600000X0.725000X-0.600000X0.725000X0.600000X0*%
%TD*%
%TA.AperFunction,ComponentPad*%
%ADD16O,1.950000X1.700000*%
%TD*%
%TA.AperFunction,ViaPad*%
%ADD17C,0.508000*%
%TD*%
%TA.AperFunction,Conductor*%
%ADD18C,0.508000*%
%TD*%
%TA.AperFunction,Conductor*%
%ADD19C,0.381000*%
%TD*%
G04 APERTURE END LIST*
D10*
%TO.P,TP11,1,1*%
%TO.N,Net-(U2-PA4_A1_D1)*%
X13517191Y33528060D03*
%TD*%
%TO.P,TP10,1,1*%
%TO.N,LED_DATA_3.3V*%
X14900577Y31397847D03*
%TD*%
%TO.P,TP9,1,1*%
%TO.N,Net-(U2-PB09_A7_D7_RX)*%
X45085000Y38735000D03*
%TD*%
%TO.P,TP8,1,1*%
%TO.N,Net-(U2-PA7_A8_D8_SCK)*%
X43711202Y40850464D03*
%TD*%
%TO.P,TP7,1,1*%
%TO.N,Net-(U2-PA5_A9_D9_MISO)*%
X42337405Y42965925D03*
%TD*%
%TO.P,TP6,1,1*%
%TO.N,Net-(U2-PA6_A10_D10_MOSI)*%
X40815685Y45309172D03*
%TD*%
%TO.P,TP5,1,1*%
%TO.N,Net-(U2-PB08_A6_D6_TX)*%
X20434109Y22876942D03*
%TD*%
%TO.P,TP4,1,1*%
%TO.N,Net-(U2-PA9_A5_D5_SCL)*%
X19050720Y25007164D03*
%TD*%
%TO.P,TP3,1,1*%
%TO.N,LED_ENABLE*%
X17667336Y27137396D03*
%TD*%
%TO.P,TP2,1,1*%
%TO.N,Net-(U2-PA11_A3_D3)*%
X16283958Y29267615D03*
%TD*%
%TO.P,TP1,1,1*%
%TO.N,Net-(U2-PA02_A0_D0)*%
X12133810Y35658282D03*
%TD*%
D11*
%TO.P,H3,1,1*%
%TO.N,GND*%
X53972221Y-3809637D03*
%TD*%
%TO.P,H2,1,1*%
%TO.N,GND*%
X53971113Y59698784D03*
%TD*%
D12*
%TO.P,H1,*%
%TO.N,*%
X1266105Y27948781D03*
%TD*%
D11*
%TO.P,H4,1,1*%
%TO.N,GND*%
X-51438898Y-3801227D03*
%TD*%
D13*
%TO.P,J1,1,Pin_1*%
%TO.N,+12V*%
X23672112Y12213677D03*
D14*
%TO.P,J1,2,Pin_2*%
%TO.N,GND*%
X25849317Y10905480D03*
%TD*%
D15*
%TO.P,J4,1,Pin_1*%
%TO.N,GND*%
X55371998Y30440000D03*
D16*
%TO.P,J4,2,Pin_2*%
%TO.N,Net-(J4-Pin_2)*%
X55371998Y27940000D03*
%TO.P,J4,3,Pin_3*%
%TO.N,5V_LED*%
X55371998Y25440000D03*
%TD*%
D11*
%TO.P,H5,1,1*%
%TO.N,GND*%
X-51419685Y59727331D03*
%TD*%
D17*
%TO.N,+3.3V*%
X48768000Y44069000D03*
X45085000Y42799000D03*
%TO.N,GND*%
X50292000Y40640000D03*
X28829000Y21082000D03*
X39370000Y29083000D03*
X51689000Y46228000D03*
X48260000Y52324000D03*
X11986412Y20147355D03*
X30226000Y44450000D03*
X50866000Y42098000D03*
X47625000Y28067000D03*
X43026500Y24765000D03*
%TO.N,LED_DATA_3.3V*%
X47244000Y34036000D03*
X49784000Y35560000D03*
%TO.N,LED_ENABLE*%
X28702000Y48514000D03*
X26924000Y35052000D03*
%TD*%
D18*
%TO.N,+3.3V*%
X47498000Y42799000D02*
X48768000Y44069000D01*
X45085000Y42799000D02*
X47498000Y42799000D01*
D19*
%TO.N,LED_DATA_3.3V*%
X49784000Y35560000D02*
X48260000Y34036000D01*
X48260000Y34036000D02*
X47244000Y34036000D01*
D18*
%TO.N,LED_ENABLE*%
X28702000Y48514000D02*
X28702000Y36830000D01*
X28702000Y36830000D02*
X26924000Y35052000D01*
%TD*%
%TA.AperFunction,Conductor*%
%TO.N,GND*%
G36*
X58378531Y63480787D02*
G01*
X58415076Y63430487D01*
X58420000Y63399400D01*
X58420000Y-7519400D01*
X58400787Y-7578531D01*
X58350487Y-7615076D01*
X58319400Y-7620000D01*
X49558827Y-7620000D01*
X49505547Y-7604732D01*
X18169453Y11961219D01*
X22249100Y11961219D01*
X22253959Y11860094D01*
X22253961Y11860087D01*
X22297145Y11768523D01*
X22297148Y11768518D01*
X22353172Y11717629D01*
X22353174Y11717628D01*
X23853331Y10816243D01*
X23924569Y10790665D01*
X24025694Y10795524D01*
X24025701Y10795526D01*
X24117265Y10838710D01*
X24117270Y10838713D01*
X24168159Y10894737D01*
X24168160Y10894739D01*
X24174614Y10905480D01*
X24740587Y10905480D01*
X24759464Y10701755D01*
X24759464Y10701754D01*
X24815457Y10504959D01*
X24815458Y10504957D01*
X24906653Y10321813D01*
X25029958Y10158530D01*
X25173639Y10027546D01*
X25491363Y10556327D01*
X25542310Y10505381D01*
X25656324Y10439555D01*
X25709036Y10425430D01*
X25392440Y9898524D01*
X25545900Y9839074D01*
X25545905Y9839073D01*
X25747014Y9801480D01*
X25951620Y9801480D01*
X26152735Y9839075D01*
X26343518Y9912985D01*
X26517473Y10020691D01*
X26517477Y10020694D01*
X26668677Y10158532D01*
X26723980Y10231766D01*
X26198468Y10547525D01*
X26249416Y10598473D01*
X26315242Y10712487D01*
X26329366Y10765198D01*
X26855379Y10449138D01*
X26883177Y10504962D01*
X26939169Y10701754D01*
X26939169Y10701755D01*
X26958046Y10905480D01*
X26939169Y11109204D01*
X26939169Y11109205D01*
X26883176Y11306000D01*
X26883175Y11306002D01*
X26791980Y11489146D01*
X26791979Y11489147D01*
X26668677Y11652427D01*
X26524994Y11783412D01*
X26207270Y11254632D01*
X26156324Y11305579D01*
X26042310Y11371405D01*
X25989596Y11385529D01*
X26306192Y11912433D01*
X26306192Y11912434D01*
X26152738Y11971883D01*
X25951620Y12009480D01*
X25747014Y12009480D01*
X25545898Y11971884D01*
X25355115Y11897974D01*
X25181160Y11790268D01*
X25181156Y11790265D01*
X25029956Y11652427D01*
X24974652Y11579192D01*
X25500164Y11263433D01*
X25449218Y11212487D01*
X25383392Y11098473D01*
X25369266Y11045758D01*
X24843252Y11361820D01*
X24843251Y11361820D01*
X24815460Y11306007D01*
X24815457Y11306000D01*
X24759464Y11109205D01*
X24759464Y11109204D01*
X24740587Y10905480D01*
X24174614Y10905480D01*
X25069545Y12394896D01*
X25095123Y12466132D01*
X25090264Y12567262D01*
X25047076Y12658835D01*
X24991050Y12709725D01*
X23490893Y13611110D01*
X23419657Y13636688D01*
X23419654Y13636687D01*
X23419654Y13636688D01*
X23358979Y13633772D01*
X23318527Y13631829D01*
X23318523Y13631827D01*
X23318522Y13631827D01*
X23226958Y13588643D01*
X23226954Y13588641D01*
X23226953Y13588640D01*
X23176064Y13532616D01*
X23176063Y13532614D01*
X22274678Y12032457D01*
X22249100Y11961219D01*
X18169453Y11961219D01*
X687234Y22876946D01*
X19705125Y22876946D01*
X19705125Y22876937D01*
X19723401Y22714729D01*
X19777316Y22560649D01*
X19864165Y22422429D01*
X19864167Y22422426D01*
X19979593Y22307000D01*
X19979596Y22306998D01*
X20117816Y22220149D01*
X20271896Y22166234D01*
X20434105Y22147958D01*
X20434109Y22147958D01*
X20434113Y22147958D01*
X20596321Y22166234D01*
X20750401Y22220149D01*
X20888621Y22306998D01*
X20888624Y22307000D01*
X21004050Y22422426D01*
X21004052Y22422428D01*
X21090901Y22560648D01*
X21144816Y22714728D01*
X21147862Y22741763D01*
X21163093Y22876937D01*
X21163093Y22876946D01*
X21144816Y23039154D01*
X21144816Y23039156D01*
X21090901Y23193236D01*
X21004052Y23331456D01*
X20888623Y23446885D01*
X20750403Y23533734D01*
X20596323Y23587649D01*
X20542251Y23593741D01*
X20434113Y23605926D01*
X20434105Y23605926D01*
X20304337Y23591304D01*
X20271895Y23587649D01*
X20117815Y23533734D01*
X19979595Y23446885D01*
X19979593Y23446883D01*
X19864167Y23331457D01*
X19864165Y23331454D01*
X19777316Y23193234D01*
X19723401Y23039154D01*
X19705125Y22876946D01*
X687234Y22876946D01*
X-2492681Y24862454D01*
X-2532662Y24910067D01*
X-2540000Y24947785D01*
X-2540000Y27948781D01*
X-1850798Y27948781D01*
X-1831200Y27599799D01*
X-1780195Y27299608D01*
X-1772650Y27255200D01*
X-1727227Y27097535D01*
X-1675888Y26919333D01*
X-1652428Y26862696D01*
X-1542127Y26596404D01*
X-1542125Y26596400D01*
X-1373053Y26290490D01*
X-1373051Y26290487D01*
X-1170799Y26005439D01*
X-1170788Y26005424D01*
X-937878Y25744798D01*
X-677252Y25511888D01*
X-677241Y25511880D01*
X-677236Y25511876D01*
X-392188Y25309624D01*
X-392185Y25309622D01*
X-86275Y25140550D01*
X-86271Y25140548D01*
X236661Y25006786D01*
X572524Y24910025D01*
X917123Y24851476D01*
X1266105Y24831878D01*
X1615087Y24851476D01*
X1684005Y24863185D01*
X1959685Y24910025D01*
X2295547Y25006786D01*
X2295548Y25006786D01*
X2296470Y25007168D01*
X18321736Y25007168D01*
X18321736Y25007159D01*
X18340012Y24844951D01*
X18393927Y24690871D01*
X18480776Y24552651D01*
X18480778Y24552648D01*
X18596204Y24437222D01*
X18596207Y24437220D01*
X18734427Y24350371D01*
X18888507Y24296456D01*
X19050716Y24278180D01*
X19050720Y24278180D01*
X19050724Y24278180D01*
X19212932Y24296456D01*
X19367012Y24350371D01*
X19386628Y24362696D01*
X19505234Y24437221D01*
X19620663Y24552650D01*
X19707512Y24690870D01*
X19761427Y24844950D01*
X19773014Y24947785D01*
X19779704Y25007159D01*
X19779704Y25007168D01*
X19761427Y25169376D01*
X19761427Y25169378D01*
X19707512Y25323458D01*
X19620663Y25461678D01*
X19555411Y25526930D01*
X54142498Y25526930D01*
X54142498Y25353069D01*
X54169694Y25181366D01*
X54169697Y25181352D01*
X54223417Y25016018D01*
X54302345Y24861115D01*
X54404531Y24720468D01*
X54527466Y24597533D01*
X54668113Y24495347D01*
X54668112Y24495347D01*
X54823016Y24416419D01*
X54988350Y24362699D01*
X54988364Y24362696D01*
X55160067Y24335500D01*
X55160072Y24335500D01*
X55583928Y24335500D01*
X55755631Y24362696D01*
X55755645Y24362699D01*
X55920979Y24416419D01*
X56075882Y24495347D01*
X56216529Y24597533D01*
X56339464Y24720468D01*
X56420408Y24831878D01*
X56441651Y24861116D01*
X56516064Y25007159D01*
X56520578Y25016018D01*
X56574298Y25181352D01*
X56574298Y25181354D01*
X56574301Y25181362D01*
X56601497Y25353069D01*
X56601498Y25353070D01*
X56601498Y25526929D01*
X56601497Y25526930D01*
X56593550Y25577105D01*
X56574301Y25698638D01*
X56520578Y25863981D01*
X56441651Y26018884D01*
X56339463Y26159533D01*
X56216531Y26282465D01*
X56075882Y26384653D01*
X55920979Y26463580D01*
X55755636Y26517303D01*
X55660240Y26532412D01*
X55583928Y26544500D01*
X55583924Y26544500D01*
X55160072Y26544500D01*
X55160068Y26544500D01*
X55074216Y26530901D01*
X54988360Y26517303D01*
X54988352Y26517300D01*
X54988350Y26517300D01*
X54823016Y26463580D01*
X54750614Y26426689D01*
X54668114Y26384653D01*
X54668113Y26384652D01*
X54527466Y26282466D01*
X54404531Y26159531D01*
X54302345Y26018884D01*
X54223417Y25863981D01*
X54169697Y25698647D01*
X54169694Y25698633D01*
X54142498Y25526930D01*
X19555411Y25526930D01*
X19505234Y25577107D01*
X19367014Y25663956D01*
X19212934Y25717871D01*
X19158862Y25723963D01*
X19050724Y25736148D01*
X19050716Y25736148D01*
X18920948Y25721526D01*
X18888506Y25717871D01*
X18734426Y25663956D01*
X18596206Y25577107D01*
X18480777Y25461678D01*
X18412535Y25353070D01*
X18393927Y25323456D01*
X18340012Y25169376D01*
X18321736Y25007168D01*
X2296470Y25007168D01*
X2618481Y25140548D01*
X2618485Y25140550D01*
X2924395Y25309622D01*
X2924398Y25309624D01*
X3209446Y25511876D01*
X3209451Y25511880D01*
X3209462Y25511888D01*
X3470088Y25744798D01*
X3702998Y26005424D01*
X3703009Y26005439D01*
X3905261Y26290487D01*
X3905263Y26290490D01*
X4074335Y26596400D01*
X4074337Y26596404D01*
X4184638Y26862696D01*
X4208098Y26919333D01*
X4259437Y27097535D01*
X4270922Y27137400D01*
X16938352Y27137400D01*
X16938352Y27137391D01*
X16956628Y26975183D01*
X17010543Y26821103D01*
X17097392Y26682883D01*
X17097394Y26682880D01*
X17212820Y26567454D01*
X17212823Y26567452D01*
X17351043Y26480603D01*
X17505123Y26426688D01*
X17667332Y26408412D01*
X17667336Y26408412D01*
X17667340Y26408412D01*
X17829548Y26426688D01*
X17983628Y26480603D01*
X18042032Y26517300D01*
X18121850Y26567453D01*
X18237279Y26682882D01*
X18324128Y26821102D01*
X18378043Y26975182D01*
X18391829Y27097535D01*
X18396320Y27137391D01*
X18396320Y27137400D01*
X18378043Y27299608D01*
X18378043Y27299610D01*
X18324128Y27453690D01*
X18237279Y27591910D01*
X18121850Y27707339D01*
X17983630Y27794188D01*
X17829550Y27848103D01*
X17775478Y27854195D01*
X17667340Y27866380D01*
X17667332Y27866380D01*
X17537564Y27851758D01*
X17505122Y27848103D01*
X17351042Y27794188D01*
X17212822Y27707339D01*
X17212820Y27707337D01*
X17097394Y27591911D01*
X17097392Y27591908D01*
X17010543Y27453688D01*
X16956628Y27299608D01*
X16938352Y27137400D01*
X4270922Y27137400D01*
X4304860Y27255200D01*
X4312405Y27299608D01*
X4363410Y27599799D01*
X4383008Y27948781D01*
X4378619Y28026930D01*
X54142498Y28026930D01*
X54142498Y27853069D01*
X54169694Y27681366D01*
X54169697Y27681352D01*
X54223417Y27516018D01*
X54302345Y27361115D01*
X54404531Y27220468D01*
X54527466Y27097533D01*
X54668113Y26995347D01*
X54668112Y26995347D01*
X54823016Y26916419D01*
X54988350Y26862699D01*
X54988364Y26862696D01*
X55160067Y26835500D01*
X55160072Y26835500D01*
X55583928Y26835500D01*
X55755631Y26862696D01*
X55755645Y26862699D01*
X55920979Y26916419D01*
X56075882Y26995347D01*
X56216529Y27097533D01*
X56339464Y27220468D01*
X56441650Y27361115D01*
X56520578Y27516018D01*
X56574298Y27681352D01*
X56574298Y27681354D01*
X56574301Y27681362D01*
X56601497Y27853069D01*
X56601498Y27853070D01*
X56601498Y28026929D01*
X56601497Y28026930D01*
X56574301Y28198638D01*
X56520578Y28363981D01*
X56441651Y28518884D01*
X56339463Y28659533D01*
X56216531Y28782465D01*
X56075882Y28884653D01*
X55920979Y28963580D01*
X55755636Y29017303D01*
X55660240Y29032412D01*
X55583928Y29044500D01*
X55583924Y29044500D01*
X55160072Y29044500D01*
X55160068Y29044500D01*
X55074216Y29030901D01*
X54988360Y29017303D01*
X54988352Y29017300D01*
X54988350Y29017300D01*
X54823016Y28963580D01*
X54798959Y28951322D01*
X54668114Y28884653D01*
X54668113Y28884652D01*
X54527466Y28782466D01*
X54404531Y28659531D01*
X54302345Y28518884D01*
X54223417Y28363981D01*
X54169697Y28198647D01*
X54169694Y28198633D01*
X54142498Y28026930D01*
X4378619Y28026930D01*
X4363410Y28297763D01*
X4304861Y28642357D01*
X4208098Y28978229D01*
X4088229Y29267619D01*
X15554974Y29267619D01*
X15554974Y29267610D01*
X15573250Y29105402D01*
X15627165Y28951322D01*
X15714014Y28813102D01*
X15714016Y28813099D01*
X15829442Y28697673D01*
X15829445Y28697671D01*
X15967665Y28610822D01*
X16121745Y28556907D01*
X16283954Y28538631D01*
X16283958Y28538631D01*
X16283962Y28538631D01*
X16446170Y28556907D01*
X16600250Y28610822D01*
X16650445Y28642361D01*
X16738472Y28697672D01*
X16853901Y28813101D01*
X16940750Y28951321D01*
X16994665Y29105401D01*
X16997711Y29132436D01*
X17012942Y29267610D01*
X17012942Y29267619D01*
X17000757Y29375757D01*
X16994665Y29429829D01*
X16940750Y29583909D01*
X16853901Y29722129D01*
X16738472Y29837558D01*
X16600252Y29924407D01*
X16446172Y29978322D01*
X16392100Y29984414D01*
X16283962Y29996599D01*
X16283954Y29996599D01*
X16154186Y29981977D01*
X16121744Y29978322D01*
X15967664Y29924407D01*
X15829444Y29837558D01*
X15714015Y29722129D01*
X15634750Y29595978D01*
X15627165Y29583907D01*
X15573250Y29429827D01*
X15554974Y29267619D01*
X4088229Y29267619D01*
X4074338Y29301155D01*
X4051513Y29342453D01*
X3905263Y29607071D01*
X3905261Y29607074D01*
X3823627Y29722127D01*
X3702998Y29892138D01*
X3470088Y30152764D01*
X3209462Y30385674D01*
X2924397Y30587938D01*
X2777975Y30668863D01*
X2618485Y30757011D01*
X2618481Y30757013D01*
X2618479Y30757014D01*
X2295553Y30890774D01*
X2046010Y30962665D01*
X1959685Y30987536D01*
X1959683Y30987536D01*
X1959681Y30987537D01*
X1615087Y31046086D01*
X1266105Y31065684D01*
X917123Y31046086D01*
X572529Y30987537D01*
X572527Y30987536D01*
X572524Y30987536D01*
X419097Y30943334D01*
X236657Y30890774D01*
X-86269Y30757014D01*
X-86271Y30757013D01*
X-86275Y30757011D01*
X-245765Y30668863D01*
X-392187Y30587938D01*
X-677252Y30385674D01*
X-937878Y30152764D01*
X-1170788Y29892138D01*
X-1291417Y29722127D01*
X-1373051Y29607074D01*
X-1373053Y29607071D01*
X-1519303Y29342453D01*
X-1542128Y29301155D01*
X-1675888Y28978229D01*
X-1772651Y28642357D01*
X-1831200Y28297763D01*
X-1850798Y27948781D01*
X-2540000Y27948781D01*
X-2540000Y30424671D01*
X-2520787Y30483802D01*
X-2493276Y30509629D01*
X-1092618Y31397851D01*
X14171593Y31397851D01*
X14171593Y31397842D01*
X14189869Y31235634D01*
X14243784Y31081554D01*
X14330633Y30943334D01*
X14330635Y30943331D01*
X14446061Y30827905D01*
X14446064Y30827903D01*
X14584284Y30741054D01*
X14738364Y30687139D01*
X14900573Y30668863D01*
X14900577Y30668863D01*
X14900581Y30668863D01*
X15062789Y30687139D01*
X15216869Y30741054D01*
X15242270Y30757014D01*
X15355091Y30827904D01*
X15470520Y30943333D01*
X15557369Y31081553D01*
X15559698Y31088210D01*
X54142998Y31088210D01*
X54142998Y30567000D01*
X54914271Y30567000D01*
X54896998Y30502535D01*
X54896998Y30377465D01*
X54914271Y30313000D01*
X54142999Y30313000D01*
X54142999Y29791789D01*
X54149451Y29731766D01*
X54149452Y29731761D01*
X54200096Y29595978D01*
X54286951Y29479953D01*
X54402976Y29393098D01*
X54538762Y29342453D01*
X54598787Y29336000D01*
X55244998Y29336000D01*
X55244998Y29982273D01*
X55309463Y29965000D01*
X55434533Y29965000D01*
X55498998Y29982273D01*
X55498998Y29336000D01*
X56145208Y29336000D01*
X56205231Y29342453D01*
X56205236Y29342454D01*
X56341019Y29393098D01*
X56457044Y29479953D01*
X56543899Y29595978D01*
X56594544Y29731763D01*
X56594544Y29731765D01*
X56600998Y29791789D01*
X56600998Y30313000D01*
X55829725Y30313000D01*
X55846998Y30377465D01*
X55846998Y30502535D01*
X55829725Y30567000D01*
X56600997Y30567000D01*
X56600997Y31088210D01*
X56594544Y31148233D01*
X56594543Y31148238D01*
X56543899Y31284021D01*
X56457044Y31400046D01*
X56341019Y31486901D01*
X56205233Y31537546D01*
X56145208Y31543999D01*
X55498998Y31543999D01*
X55498998Y30897726D01*
X55434533Y30915000D01*
X55309463Y30915000D01*
X55244998Y30897726D01*
X55244998Y31543999D01*
X54598788Y31543999D01*
X54538764Y31537546D01*
X54538759Y31537545D01*
X54402976Y31486901D01*
X54286951Y31400046D01*
X54200096Y31284021D01*
X54149451Y31148236D01*
X54149451Y31148234D01*
X54142998Y31088210D01*
X15559698Y31088210D01*
X15611284Y31235633D01*
X15616736Y31284021D01*
X15629561Y31397842D01*
X15629561Y31397851D01*
X15611284Y31560059D01*
X15611284Y31560061D01*
X15557369Y31714141D01*
X15470520Y31852361D01*
X15355091Y31967790D01*
X15216871Y32054639D01*
X15062791Y32108554D01*
X15008719Y32114646D01*
X14900581Y32126831D01*
X14900573Y32126831D01*
X14770805Y32112209D01*
X14738363Y32108554D01*
X14584283Y32054639D01*
X14446063Y31967790D01*
X14446061Y31967788D01*
X14330635Y31852362D01*
X14330633Y31852359D01*
X14243784Y31714139D01*
X14189869Y31560059D01*
X14171593Y31397851D01*
X-1092618Y31397851D01*
X2266564Y33528064D01*
X12788207Y33528064D01*
X12788207Y33528055D01*
X12806483Y33365847D01*
X12860398Y33211767D01*
X12947247Y33073547D01*
X12947249Y33073544D01*
X13062675Y32958118D01*
X13062678Y32958116D01*
X13200898Y32871267D01*
X13354978Y32817352D01*
X13517187Y32799076D01*
X13517191Y32799076D01*
X13517195Y32799076D01*
X13679403Y32817352D01*
X13833483Y32871267D01*
X13971703Y32958116D01*
X13971706Y32958118D01*
X14087132Y33073544D01*
X14087134Y33073546D01*
X14173983Y33211766D01*
X14227898Y33365846D01*
X14246112Y33527500D01*
X14246175Y33528055D01*
X14246175Y33528064D01*
X14232689Y33647751D01*
X14227898Y33690274D01*
X14173983Y33844354D01*
X14087134Y33982574D01*
X14033708Y34036000D01*
X46730271Y34036000D01*
X46751080Y33891266D01*
X46811822Y33758259D01*
X46907577Y33647751D01*
X47030589Y33568695D01*
X47170888Y33527500D01*
X47170889Y33527500D01*
X47317111Y33527500D01*
X47457408Y33568695D01*
X47457411Y33568696D01*
X47467267Y33575030D01*
X47521655Y33591000D01*
X48318588Y33591000D01*
X48375174Y33606163D01*
X48375174Y33606162D01*
X48375175Y33606163D01*
X48431759Y33621324D01*
X48431765Y33621326D01*
X48533236Y33679911D01*
X49906501Y35053176D01*
X49949292Y35078565D01*
X49997406Y35092693D01*
X49997408Y35092694D01*
X50038257Y35118946D01*
X50120421Y35171750D01*
X50216176Y35282257D01*
X50276919Y35415266D01*
X50297729Y35560000D01*
X50276919Y35704734D01*
X50216176Y35837743D01*
X50120421Y35948250D01*
X49997411Y36027304D01*
X49857111Y36068500D01*
X49710889Y36068500D01*
X49570589Y36027304D01*
X49447579Y35948250D01*
X49351824Y35837743D01*
X49351823Y35837741D01*
X49351822Y35837740D01*
X49291621Y35705916D01*
X49271247Y35676572D01*
X48105140Y34510465D01*
X48049742Y34482239D01*
X48034005Y34481000D01*
X47521655Y34481000D01*
X47467267Y34496970D01*
X47467149Y34497045D01*
X47457411Y34503304D01*
X47317111Y34544500D01*
X47170889Y34544500D01*
X47030589Y34503304D01*
X46907579Y34424250D01*
X46811824Y34313743D01*
X46811823Y34313741D01*
X46811822Y34313740D01*
X46751080Y34180733D01*
X46730271Y34036000D01*
X14033708Y34036000D01*
X13971705Y34098003D01*
X13833485Y34184852D01*
X13679405Y34238767D01*
X13625333Y34244859D01*
X13517195Y34257044D01*
X13517187Y34257044D01*
X13387419Y34242422D01*
X13354977Y34238767D01*
X13200897Y34184852D01*
X13062677Y34098003D01*
X13062675Y34098001D01*
X12947249Y33982575D01*
X12947247Y33982572D01*
X12860398Y33844352D01*
X12806483Y33690272D01*
X12788207Y33528064D01*
X2266564Y33528064D01*
X5625760Y35658286D01*
X11404826Y35658286D01*
X11404826Y35658277D01*
X11423102Y35496069D01*
X11477017Y35341989D01*
X11563866Y35203769D01*
X11563868Y35203766D01*
X11679294Y35088340D01*
X11679297Y35088338D01*
X11817517Y35001489D01*
X11971597Y34947574D01*
X12133806Y34929298D01*
X12133810Y34929298D01*
X12133814Y34929298D01*
X12296022Y34947574D01*
X12450102Y35001489D01*
X12461159Y35008436D01*
X12530489Y35051999D01*
X26410271Y35051999D01*
X26414476Y35022753D01*
X26415500Y35008436D01*
X26415500Y34985053D01*
X26423437Y34955428D01*
X26425838Y34943717D01*
X26431079Y34907274D01*
X26431083Y34907260D01*
X26440325Y34887021D01*
X26445985Y34871278D01*
X26450153Y34855723D01*
X26469123Y34822866D01*
X26473508Y34814361D01*
X26491822Y34774261D01*
X26491828Y34774251D01*
X26501619Y34762950D01*
X26512696Y34747395D01*
X26517096Y34739776D01*
X26517100Y34739771D01*
X26549058Y34707812D01*
X26553947Y34702561D01*
X26587578Y34663750D01*
X26587581Y34663748D01*
X26593994Y34659627D01*
X26610732Y34646139D01*
X26611773Y34645099D01*
X26611775Y34645098D01*
X26657206Y34618866D01*
X26661287Y34616378D01*
X26710586Y34584697D01*
X26710600Y34584691D01*
X26710884Y34584608D01*
X26721404Y34580111D01*
X26721638Y34580675D01*
X26727727Y34578152D01*
X26785411Y34562696D01*
X26787714Y34562049D01*
X26850886Y34543500D01*
X26850889Y34543500D01*
X26997114Y34543500D01*
X27060294Y34562051D01*
X27062597Y34562698D01*
X27120274Y34578153D01*
X27126366Y34580676D01*
X27126602Y34580106D01*
X27137131Y34584613D01*
X27137411Y34584696D01*
X27137414Y34584697D01*
X27186696Y34616369D01*
X27190782Y34618860D01*
X27236225Y34645098D01*
X27236228Y34645100D01*
X27237261Y34646133D01*
X27254005Y34659626D01*
X27260419Y34663748D01*
X27260424Y34663752D01*
X27294043Y34702552D01*
X27298937Y34707809D01*
X29108900Y36517773D01*
X29175848Y36633728D01*
X29175848Y36633729D01*
X29210499Y36763049D01*
X29210500Y36763056D01*
X29210500Y38735004D01*
X44356016Y38735004D01*
X44356016Y38734995D01*
X44374292Y38572787D01*
X44428207Y38418707D01*
X44515056Y38280487D01*
X44515058Y38280484D01*
X44630484Y38165058D01*
X44630487Y38165056D01*
X44768707Y38078207D01*
X44922787Y38024292D01*
X45084996Y38006016D01*
X45085000Y38006016D01*
X45085004Y38006016D01*
X45247212Y38024292D01*
X45401292Y38078207D01*
X45539512Y38165056D01*
X45539515Y38165058D01*
X45654941Y38280484D01*
X45654943Y38280486D01*
X45741792Y38418706D01*
X45795707Y38572786D01*
X45798753Y38599821D01*
X45813984Y38734995D01*
X45813984Y38735004D01*
X45795707Y38897212D01*
X45795707Y38897214D01*
X45741792Y39051294D01*
X45654943Y39189514D01*
X45539514Y39304943D01*
X45401294Y39391792D01*
X45247214Y39445707D01*
X45193142Y39451799D01*
X45085004Y39463984D01*
X45084996Y39463984D01*
X44955228Y39449362D01*
X44922786Y39445707D01*
X44768706Y39391792D01*
X44630486Y39304943D01*
X44630484Y39304941D01*
X44515058Y39189515D01*
X44515056Y39189512D01*
X44428207Y39051292D01*
X44374292Y38897212D01*
X44356016Y38735004D01*
X29210500Y38735004D01*
X29210500Y40850468D01*
X42982218Y40850468D01*
X42982218Y40850459D01*
X43000494Y40688251D01*
X43054409Y40534171D01*
X43141258Y40395951D01*
X43141260Y40395948D01*
X43256686Y40280522D01*
X43256689Y40280520D01*
X43394909Y40193671D01*
X43548989Y40139756D01*
X43711198Y40121480D01*
X43711202Y40121480D01*
X43711206Y40121480D01*
X43873414Y40139756D01*
X44027494Y40193671D01*
X44165714Y40280520D01*
X44165717Y40280522D01*
X44281143Y40395948D01*
X44281145Y40395950D01*
X44367994Y40534170D01*
X44421909Y40688250D01*
X44424955Y40715285D01*
X44440186Y40850459D01*
X44440186Y40850468D01*
X44421909Y41012676D01*
X44421909Y41012678D01*
X44367994Y41166758D01*
X44281145Y41304978D01*
X44165716Y41420407D01*
X44027496Y41507256D01*
X43873416Y41561171D01*
X43819344Y41567263D01*
X43711206Y41579448D01*
X43711198Y41579448D01*
X43581430Y41564826D01*
X43548988Y41561171D01*
X43394908Y41507256D01*
X43256688Y41420407D01*
X43256686Y41420405D01*
X43141260Y41304979D01*
X43141258Y41304976D01*
X43054409Y41166756D01*
X43000494Y41012676D01*
X42982218Y40850468D01*
X29210500Y40850468D01*
X29210500Y42965929D01*
X41608421Y42965929D01*
X41608421Y42965920D01*
X41626697Y42803712D01*
X41680612Y42649632D01*
X41767461Y42511412D01*
X41767463Y42511409D01*
X41882889Y42395983D01*
X41882892Y42395981D01*
X42021112Y42309132D01*
X42175192Y42255217D01*
X42337401Y42236941D01*
X42337405Y42236941D01*
X42337409Y42236941D01*
X42499617Y42255217D01*
X42653697Y42309132D01*
X42654105Y42309388D01*
X42791919Y42395982D01*
X42907348Y42511411D01*
X42994197Y42649631D01*
X43046463Y42798999D01*
X44571271Y42798999D01*
X44575476Y42769753D01*
X44576500Y42755436D01*
X44576500Y42732053D01*
X44584437Y42702428D01*
X44586838Y42690717D01*
X44592079Y42654274D01*
X44592083Y42654260D01*
X44601325Y42634021D01*
X44606985Y42618278D01*
X44611153Y42602723D01*
X44630118Y42569875D01*
X44634503Y42561371D01*
X44652824Y42521256D01*
X44662619Y42509951D01*
X44673701Y42494388D01*
X44678092Y42486783D01*
X44678100Y42486773D01*
X44710058Y42454813D01*
X44714947Y42449562D01*
X44748579Y42410749D01*
X44748580Y42410748D01*
X44754997Y42406625D01*
X44771734Y42393138D01*
X44772772Y42392099D01*
X44818199Y42365871D01*
X44822284Y42363381D01*
X44871590Y42331694D01*
X44871592Y42331693D01*
X44871884Y42331608D01*
X44882404Y42327111D01*
X44882638Y42327675D01*
X44888727Y42325152D01*
X44946411Y42309696D01*
X44948714Y42309049D01*
X45011886Y42290500D01*
X45011889Y42290500D01*
X47564950Y42290500D01*
X47694270Y42325151D01*
X47694271Y42325151D01*
X47760486Y42363381D01*
X47810227Y42392099D01*
X49081261Y43663133D01*
X49098005Y43676626D01*
X49104419Y43680748D01*
X49104424Y43680752D01*
X49138043Y43719552D01*
X49142937Y43724809D01*
X49174899Y43756771D01*
X49174901Y43756773D01*
X49179298Y43764388D01*
X49190384Y43779956D01*
X49200176Y43791257D01*
X49218492Y43831365D01*
X49222874Y43839865D01*
X49241847Y43872726D01*
X49246010Y43888267D01*
X49251672Y43904020D01*
X49260919Y43924266D01*
X49266160Y43960719D01*
X49268564Y43972440D01*
X49276498Y44002050D01*
X49276499Y44002056D01*
X49276499Y44025429D01*
X49277523Y44039746D01*
X49281729Y44068999D01*
X49277523Y44098252D01*
X49276499Y44112569D01*
X49276499Y44135943D01*
X49276499Y44135945D01*
X49268561Y44165567D01*
X49266160Y44177279D01*
X49260919Y44213731D01*
X49260919Y44213734D01*
X49251673Y44233976D01*
X49246010Y44249733D01*
X49241847Y44265274D01*
X49222871Y44298139D01*
X49218498Y44306620D01*
X49200176Y44346743D01*
X49190385Y44358041D01*
X49179289Y44373623D01*
X49174901Y44381226D01*
X49142932Y44413193D01*
X49138065Y44418421D01*
X49104421Y44457250D01*
X49098005Y44461372D01*
X49081248Y44474879D01*
X49081140Y44474986D01*
X49080226Y44475901D01*
X49034792Y44502132D01*
X49030729Y44504608D01*
X48981411Y44536304D01*
X48981150Y44536380D01*
X48970601Y44540905D01*
X48970361Y44540325D01*
X48964275Y44542846D01*
X48964274Y44542847D01*
X48964272Y44542847D01*
X48964271Y44542848D01*
X48940262Y44549280D01*
X48906590Y44558302D01*
X48904367Y44558925D01*
X48841111Y44577500D01*
X48694889Y44577500D01*
X48631694Y44558944D01*
X48629398Y44558300D01*
X48589178Y44547523D01*
X48571726Y44542847D01*
X48571719Y44542843D01*
X48565633Y44540323D01*
X48565395Y44540895D01*
X48554858Y44536383D01*
X48554589Y44536304D01*
X48505282Y44504616D01*
X48501211Y44502135D01*
X48455773Y44475901D01*
X48455772Y44475900D01*
X48454737Y44474865D01*
X48437992Y44461371D01*
X48431579Y44457250D01*
X48431576Y44457247D01*
X48431575Y44457246D01*
X48397955Y44418446D01*
X48393062Y44413190D01*
X47316837Y43336965D01*
X47261439Y43308739D01*
X47245702Y43307500D01*
X45011889Y43307500D01*
X44948683Y43288941D01*
X44946435Y43288309D01*
X44888726Y43272847D01*
X44888724Y43272846D01*
X44882633Y43270323D01*
X44882395Y43270895D01*
X44871858Y43266383D01*
X44871589Y43266304D01*
X44871587Y43266303D01*
X44822297Y43234626D01*
X44818211Y43232135D01*
X44772774Y43205901D01*
X44772773Y43205900D01*
X44771742Y43204869D01*
X44754994Y43191373D01*
X44748581Y43187252D01*
X44748578Y43187249D01*
X44714948Y43148438D01*
X44710055Y43143182D01*
X44678097Y43111224D01*
X44673708Y43103621D01*
X44662614Y43088042D01*
X44652823Y43076743D01*
X44634507Y43036637D01*
X44630122Y43028130D01*
X44611152Y42995273D01*
X44606985Y42979721D01*
X44601323Y42963972D01*
X44592082Y42943738D01*
X44592080Y42943730D01*
X44586840Y42907286D01*
X44584437Y42895569D01*
X44576500Y42865946D01*
X44576500Y42842562D01*
X44575476Y42828245D01*
X44571271Y42798999D01*
X43046463Y42798999D01*
X43048112Y42803711D01*
X43059782Y42907286D01*
X43066389Y42965920D01*
X43066389Y42965929D01*
X43050018Y43111224D01*
X43048112Y43128139D01*
X42994197Y43282219D01*
X42907348Y43420439D01*
X42791919Y43535868D01*
X42653699Y43622717D01*
X42499619Y43676632D01*
X42445547Y43682724D01*
X42337409Y43694909D01*
X42337401Y43694909D01*
X42211722Y43680748D01*
X42175191Y43676632D01*
X42021111Y43622717D01*
X41882891Y43535868D01*
X41767462Y43420439D01*
X41684630Y43288611D01*
X41680612Y43282217D01*
X41626697Y43128137D01*
X41608421Y42965929D01*
X29210500Y42965929D01*
X29210500Y45309176D01*
X40086701Y45309176D01*
X40086701Y45309167D01*
X40104977Y45146959D01*
X40158892Y44992879D01*
X40245741Y44854659D01*
X40245743Y44854656D01*
X40361169Y44739230D01*
X40361172Y44739228D01*
X40499392Y44652379D01*
X40653472Y44598464D01*
X40815681Y44580188D01*
X40815685Y44580188D01*
X40815689Y44580188D01*
X40977897Y44598464D01*
X41131977Y44652379D01*
X41270197Y44739228D01*
X41270200Y44739230D01*
X41385626Y44854656D01*
X41385628Y44854658D01*
X41472477Y44992878D01*
X41526392Y45146958D01*
X41529438Y45173993D01*
X41544669Y45309167D01*
X41544669Y45309176D01*
X41526392Y45471384D01*
X41526392Y45471386D01*
X41472477Y45625466D01*
X41385628Y45763686D01*
X41270199Y45879115D01*
X41131979Y45965964D01*
X40977899Y46019879D01*
X40923827Y46025971D01*
X40815689Y46038156D01*
X40815681Y46038156D01*
X40685913Y46023534D01*
X40653471Y46019879D01*
X40499391Y45965964D01*
X40361171Y45879115D01*
X40361169Y45879113D01*
X40245743Y45763687D01*
X40245741Y45763684D01*
X40158892Y45625464D01*
X40104977Y45471384D01*
X40086701Y45309176D01*
X29210500Y45309176D01*
X29210500Y48470436D01*
X29211524Y48484753D01*
X29215729Y48513999D01*
X29211524Y48543245D01*
X29210500Y48557562D01*
X29210500Y48580944D01*
X29210500Y48580945D01*
X29202561Y48610570D01*
X29200158Y48622290D01*
X29194919Y48658734D01*
X29185676Y48678972D01*
X29180012Y48694728D01*
X29175847Y48710274D01*
X29156876Y48743130D01*
X29152498Y48751620D01*
X29134176Y48791743D01*
X29124385Y48803042D01*
X29113289Y48818623D01*
X29108901Y48826226D01*
X29076932Y48858193D01*
X29072065Y48863421D01*
X29038421Y48902250D01*
X29032005Y48906373D01*
X29015248Y48919879D01*
X29015140Y48919986D01*
X29014226Y48920901D01*
X28968789Y48947134D01*
X28964729Y48949608D01*
X28915411Y48981304D01*
X28915150Y48981380D01*
X28904607Y48985902D01*
X28904367Y48985322D01*
X28898280Y48987843D01*
X28898274Y48987847D01*
X28873787Y48994407D01*
X28840593Y49003302D01*
X28838287Y49003949D01*
X28775111Y49022500D01*
X28628889Y49022500D01*
X28565683Y49003941D01*
X28563435Y49003309D01*
X28505726Y48987847D01*
X28505724Y48987846D01*
X28499633Y48985323D01*
X28499395Y48985895D01*
X28488858Y48981383D01*
X28488589Y48981304D01*
X28488587Y48981303D01*
X28439297Y48949626D01*
X28435211Y48947135D01*
X28389774Y48920901D01*
X28389773Y48920900D01*
X28388742Y48919869D01*
X28371994Y48906373D01*
X28365581Y48902252D01*
X28365578Y48902249D01*
X28331948Y48863438D01*
X28327055Y48858182D01*
X28295097Y48826224D01*
X28290708Y48818621D01*
X28279614Y48803042D01*
X28269823Y48791743D01*
X28251507Y48751637D01*
X28247122Y48743130D01*
X28228152Y48710273D01*
X28223985Y48694721D01*
X28218323Y48678972D01*
X28209082Y48658738D01*
X28209080Y48658730D01*
X28203840Y48622286D01*
X28201437Y48610569D01*
X28193500Y48580946D01*
X28193500Y48557562D01*
X28192476Y48543245D01*
X28188271Y48513999D01*
X28192476Y48484753D01*
X28193500Y48470436D01*
X28193500Y37082297D01*
X28174287Y37023166D01*
X28164035Y37011162D01*
X26610738Y35457866D01*
X26593993Y35444372D01*
X26587579Y35440250D01*
X26587578Y35440249D01*
X26587575Y35440246D01*
X26553955Y35401446D01*
X26549061Y35396189D01*
X26517100Y35364228D01*
X26512701Y35356610D01*
X26501614Y35341042D01*
X26491824Y35329743D01*
X26473506Y35289634D01*
X26469121Y35281128D01*
X26450152Y35248273D01*
X26445985Y35232721D01*
X26440323Y35216972D01*
X26431082Y35196738D01*
X26431080Y35196730D01*
X26425840Y35160286D01*
X26423437Y35148569D01*
X26415500Y35118946D01*
X26415500Y35095562D01*
X26414476Y35081245D01*
X26410271Y35051999D01*
X12530489Y35051999D01*
X12588324Y35088339D01*
X12703753Y35203768D01*
X12790602Y35341988D01*
X12844517Y35496068D01*
X12847563Y35523103D01*
X12862794Y35658277D01*
X12862794Y35658286D01*
X12844517Y35820494D01*
X12844517Y35820496D01*
X12790602Y35974576D01*
X12703753Y36112796D01*
X12588324Y36228225D01*
X12450104Y36315074D01*
X12296024Y36368989D01*
X12241952Y36375081D01*
X12133814Y36387266D01*
X12133806Y36387266D01*
X12004038Y36372644D01*
X11971596Y36368989D01*
X11817516Y36315074D01*
X11679296Y36228225D01*
X11679294Y36228223D01*
X11563868Y36112797D01*
X11563866Y36112794D01*
X11477017Y35974574D01*
X11423102Y35820494D01*
X11404826Y35658286D01*
X5625760Y35658286D01*
X49505334Y63484358D01*
X49559210Y63500000D01*
X58319400Y63500000D01*
X58378531Y63480787D01*
G37*
%TD.AperFunction*%
%TD*%
M02*
